<svg width="1440" height="217" viewBox="0 0 1440 217" fill="none" xmlns="http://www.w3.org/2000/svg">
<g filter="url(#filter0_d_17_22)">
<path d="M-31.0574 280.194C-31.2065 253.536 -11.9587 227.031 25.587 202.191C63.1327 177.352 118.241 154.665 187.765 135.426C257.29 116.186 339.869 100.772 430.788 90.0614C521.706 79.3512 619.184 73.5554 717.656 73.0049C816.127 72.4543 913.664 77.1598 1004.7 86.8527C1095.73 96.5456 1178.48 111.036 1248.21 129.497C1317.95 147.958 1373.3 170.027 1411.13 194.445C1448.95 218.863 1468.49 245.151 1468.64 271.809L718.791 276.002L-31.0574 280.194Z" fill="#171819"/>
</g>
<defs>
<filter id="filter0_d_17_22" x="-103.558" y="0.461578" width="1642.7" height="350.232" filterUnits="userSpaceOnUse" color-interpolation-filters="sRGB">
<feFlood flood-opacity="0" result="BackgroundImageFix"/>
<feColorMatrix in="SourceAlpha" type="matrix" values="0 0 0 0 0 0 0 0 0 0 0 0 0 0 0 0 0 0 127 0" result="hardAlpha"/>
<feOffset dx="-1" dy="-1"/>
<feGaussianBlur stdDeviation="35.75"/>
<feComposite in2="hardAlpha" operator="out"/>
<feColorMatrix type="matrix" values="0 0 0 0 0.222031 0 0 0 0 0.845833 0 0 0 0 0.840635 0 0 0 0.28 0"/>
<feBlend mode="normal" in2="BackgroundImageFix" result="effect1_dropShadow_17_22"/>
<feBlend mode="normal" in="SourceGraphic" in2="effect1_dropShadow_17_22" result="shape"/>
</filter>
</defs>
</svg>
