<svg width="2048" height="2048" viewBox="0 0 2048 2048" fill="none" xmlns="http://www.w3.org/2000/svg">
<g clip-path="url(#clip0_1_40)">
<g clip-path="url(#clip1_1_40)">
<path d="M0 1024V2048H2048V-3.05176e-05H0V1024Z" fill="white"/>
</g>
<g clip-path="url(#clip2_1_40)">
<path d="M0 1024V2048H2048V-3.05176e-05H0V1024ZM1598 478.2C1608.6 519.1 1638.8 554.8 1677.5 572.2C1691.4 578.4 1710.2 584 1717.4 584C1722.3 584 1719.7 585 1709.7 587.1C1671.6 594.9 1639.1 616.2 1618.1 647.4C1606.3 664.8 1596.9 688.9 1594.5 708C1593.7 713.5 1593.7 713.5 1591.4 701.9C1584.7 668.7 1568 639.9 1543.6 619.3C1524.2 603 1504.6 593.1 1481.5 588.1C1476 586.8 1470.4 585.6 1469 585.3C1467.2 584.9 1469.3 584.2 1476 582.8C1506 576.7 1530.5 563.6 1551.5 542.6C1571.5 522.6 1582.8 502.3 1589.9 473.9C1591.6 467.2 1593 460.4 1593.1 458.6C1593.2 456.8 1593.8 458.5 1594.5 462.8C1595.3 466.7 1596.8 473.7 1598 478.2ZM1038.8 466.5C1087.1 468.1 1145.2 479.5 1196 497.3C1238 512 1282.9 534.2 1318.9 558.2C1409.9 618.9 1481.2 702.5 1524.6 799.5C1531 814 1542 842 1542 844C1542 844.6 1540.2 845 1537.9 845C1534.6 845 1533.7 844.6 1533.3 843C1531.1 834.8 1520.6 817.7 1508.4 802.5C1499.2 791.1 1484 776 1484 778.2C1484 779.1 1485.4 785.4 1487 792.2C1490.4 805.9 1495 831.6 1495 836.5C1495 839.4 1494.7 839.7 1492.6 839.3C1490.5 838.9 1490.2 838.1 1489.6 832.7C1487.6 815.1 1476.4 768.3 1473.7 766.9C1473.1 766.5 1469.1 763.5 1465 760.3C1453.9 751.6 1441.8 743.2 1430 735.8C1417.3 727.9 1399.6 718 1398.1 718C1396.7 718 1396.7 719 1398.5 728.1C1402.9 751.4 1405.8 778.5 1406.9 806.4C1407.7 827.8 1407.7 828.3 1410.1 830.2C1412.5 832.1 1412.5 832.1 1403 831.4C1394.3 830.8 1392.4 830.2 1380 824.7C1372.6 821.4 1360.2 816.3 1352.5 813.3C1335.9 806.8 1297.9 794 1295.2 794C1293.5 794 1293.3 795.1 1293.1 810.7C1292.9 820 1292.5 829.2 1292.2 831.3C1291.5 835 1291.5 835 1289.2 833.4C1287.3 832.1 1287 831.2 1287.4 827.7C1287.7 825.4 1288.2 816.4 1288.5 807.8L1289.2 792.1L1280.8 789.6C1258.5 782.9 1219.2 774.3 1184 768.5C1172.2 766.6 1161.3 764.8 1159.8 764.5C1157 764 1157 764 1156.9 770.8C1156.8 774.5 1156.5 786.3 1156.1 797C1155.6 814.8 1155.3 816.5 1153.7 816.8C1151.9 817.2 1151.9 816 1152.6 790.6C1153.3 764.1 1153.3 764.1 1150.9 763.6C1136.7 760.5 1066.5 755.5 1029 754.8L1011.5 754.5L1011.2 778.2C1011 801.8 1011 801.8 1013.7 802.4C1015.3 802.7 1028.4 804.7 1043 806.9C1057.6 809.2 1077.6 812.3 1087.5 814C1097.4 815.6 1105.9 817 1106.4 817C1106.9 817 1105.3 818.4 1102.9 820.1C1100.5 821.8 1097.5 824.4 1096.3 825.8C1094.1 828.4 1094.1 828.4 1090.3 826.2C1083.2 821.9 1076.3 819 1068.5 817C1061.1 815.1 1057.4 815 1001 815C943.7 815 940.6 814.9 921.4 812.5C896.8 809.5 867.1 806 865.9 806C865.4 806 865 808.7 865 812C865 816.4 864.6 818 863.6 818C862.7 818 862 816.1 861.6 811.7L860.9 805.4L843.2 803.7C803.4 799.7 736.4 794 730 794C728.7 794 728.5 796.3 728.8 809.5C729.1 825 729.1 825 726.5 825C724 825 724 825 724 810C724 798.2 723.7 794.8 722.6 794.4C719.4 793.2 662.2 813.8 632.9 826.8C620.2 832.4 618.8 832.8 609.4 833.4L599.5 834.1L604.2 831.5C607.2 829.9 609.1 828.1 609.4 826.7C609.7 825.5 610.1 816.6 610.3 806.8C610.7 789.5 610.7 789.2 608.6 788.6C605.8 787.9 536 787.8 536 788.6C536 788.9 534.5 796.7 532.6 805.8C530.7 815 528.7 826.1 528 830.5C526.2 843.6 526.2 843.6 523.5 843.6C522.1 843.6 521 843.4 521 843.2C521 839.8 527 806.5 529.4 796C530.3 792.4 531 789.2 531 788.7C531 788.3 529 788 526.6 788C522.5 788 521.8 788.4 516.4 794.2C503.2 808.5 489 829.8 484.7 841.6C482.2 848.5 482.2 848.5 477.6 849C475.1 849.3 473 849.4 473 849.3C473 848 486.4 814 491.1 803.1C494.4 795.7 496.9 789.5 496.7 789.4C496.3 788.9 459.5 791 441.5 792.5C344.5 800.7 283.7 818.8 271.6 843.2C265.2 856 269.7 868.9 285.9 885C302.4 901.3 323.8 915.2 362.3 934.6C384.8 946 385 946.1 385 949.3C385 953 387.5 967.6 388.6 970.4C389.5 972.7 390.8 973.1 373.5 965.4C307.7 936 265.1 907.1 247.3 879.9C231 854.9 236.4 831.1 262.5 813.1C289.4 794.4 336.7 781.2 404 773.6C432.3 770.4 479.1 767 496.4 767C500.8 767 505.5 766.7 506.7 766.4C508.2 766 511.2 761.7 516.4 752.7C544.2 704.3 572.1 668 611.7 628.8C689.7 551.5 785.9 499.6 892 477.5C931.4 469.3 980.9 464.5 1013.5 465.6C1018.5 465.8 1029.8 466.2 1038.8 466.5ZM1732.2 713C1739.5 731.4 1755.5 746.2 1772.8 750.2C1775.6 750.9 1778 751.7 1778 752C1778 752.3 1774.7 753.6 1770.8 754.8C1751.2 760.9 1734.3 779 1729.9 798.5L1728.7 804.1L1726.5 796.8C1721.2 778.6 1709.9 765.4 1692.9 757.6C1688.8 755.8 1684 753.9 1682.3 753.5C1678 752.6 1678.1 751.4 1682.6 750.7C1684.5 750.4 1690 748.2 1694.7 746C1710.1 738.5 1722.8 722.9 1727.1 706C1728.4 700.8 1728.4 700.8 1729.3 704.1C1729.7 706 1731.1 710 1732.2 713ZM1072.1 843.1C1085.2 849.4 1094.5 861.4 1097.1 875.4C1097.7 879 1098 889.5 1097.7 901.9C1097.4 920.3 1097.1 923.1 1095.1 927.9C1088.6 943.7 1075.6 953.8 1058.9 956C1054.9 956.5 1037.1 957 1019.6 957C991.3 957 987.4 957.2 985.8 958.7C984.1 960.2 984 962.5 984 989.1C984 1013.9 983.8 1018.1 982.4 1019.4C981.1 1020.8 976.7 1021 950 1021C923.3 1021 918.9 1020.8 917.6 1019.4C916.2 1018 916 1008.5 916 929.5C916 846.4 916.1 841 917.8 840.1C918.9 839.4 943.3 839.1 992 839.3L1064.5 839.5L1072.1 843.1ZM1173.5 842.1C1254.2 845.5 1258.1 845.7 1265.2 848.3C1280 853.7 1289.9 864.9 1293.6 880.6C1295.8 890 1294.1 923.9 1290.9 933.2C1286.1 947.6 1274.1 958.5 1259 962C1253.6 963.3 1240.7 963.2 1195.9 961.3C1180.2 960.7 1180.2 960.7 1178.7 963.1C1177.5 965 1176.9 971.5 1175.9 993.4C1174.9 1014.5 1174.3 1021.6 1173.2 1022.6C1171.6 1024.3 1166.6 1024.3 1135 1023C1120.3 1022.4 1110.6 1021.5 1109.1 1020.8C1106.8 1019.5 1106.8 1019.4 1107.4 1008.5C1107.8 1002.5 1108.7 981.1 1109.5 961C1113.8 852.7 1114.3 843.6 1116 841.5C1117.6 839.6 1112.8 839.5 1173.5 842.1ZM897.2 842.7C898.4 844.2 898.9 850.7 899.9 877.5C901.3 917.5 902.6 952.2 904 989.8C904.6 1005.3 904.9 1018.9 904.5 1020C904.2 1021 903.1 1022.1 902.2 1022.4C901.3 1022.7 887.4 1023.4 871.3 1024C850.4 1024.9 841.6 1024.9 840.1 1024.1C837.4 1022.6 837.4 1022 835.5 967.5C834.6 941.6 833.3 903.8 832.5 883.5C831.2 848.4 831.2 846.4 832.9 844.7C834.3 843.2 837.4 842.8 852.6 842.1C885.5 840.6 895.5 840.8 897.2 842.7ZM814.8 844.8C816.2 846.2 816.8 848.9 817.3 856.1C817.7 861.3 819.5 887.1 821.5 913.5C829.6 1024.8 829.5 1022 827.8 1023.6C826.6 1024.9 815.8 1025.9 773.4 1029.1C744.3 1031.2 714.8 1033.3 707.8 1033.6C695.1 1034.3 695.1 1034.3 694.1 1031.9C693.5 1030.6 692.2 1016.4 691 1000.5C685.2 920 685.7 923.5 681.6 922.4C678.8 921.7 675.5 923.3 674 926C673.3 927.3 673.3 931.9 674 940.2C674.5 947 675.9 965.3 677 981C678.1 996.7 679.5 1014.7 680 1021C680.9 1031.4 680.8 1032.6 679.2 1034.2C677.8 1035.7 673.1 1036.3 651.5 1038C619.1 1040.5 616.7 1040.5 614.8 1038.2C613.7 1037 612.9 1032 612.1 1020C609.8 988.2 606 936.2 603.5 902.2C602 883.4 601 866.3 601.2 864.2C601.4 861.4 602.1 860.2 604 859.4C605.4 858.8 633.1 856.4 665.5 854.1C698 851.8 726.3 849.8 728.5 849.5C731.1 849.1 733.2 849.4 734.4 850.3C736.3 851.7 736.5 852.8 741 915.5C743.8 955 744.4 960.1 746.6 961.7C749.2 963.6 752.3 963.3 754.9 960.9C757 958.9 757.1 958.2 756.6 952.1C756.2 948.5 754.4 924.3 752.5 898.5C749.2 853 749.2 851.4 750.9 849.6C752.5 848.1 755.7 847.6 770.1 846.4C802.1 843.9 809.5 843.3 811.3 843.1C812.2 843.1 813.8 843.8 814.8 844.8ZM1372.5 853.4C1494 864.2 1492.3 864 1493.7 865.8C1495.3 867.9 1495.3 865.6 1493 892C1491.4 910.3 1490.7 914.8 1489.3 916.2C1487.6 917.8 1485.2 917.7 1443.5 914C1380.3 908.3 1379.3 908.3 1377.5 910.6C1375.3 913.5 1375.6 917.7 1378.3 919.4C1379.8 920.4 1393.8 922 1426.5 924.9C1479.6 929.6 1478.6 929.5 1479.5 931.7C1480.5 934.6 1477 973.2 1475.4 975.7C1474.3 977.4 1473 978 1470.2 978C1466.5 978 1429.6 974.9 1392.1 971.4C1375 969.8 1374.7 969.8 1372.8 971.8C1370.4 974.2 1370.1 978.6 1372.3 980.7C1374 982.4 1378.9 982.9 1437 988C1456.5 989.6 1474.4 991.3 1476.6 991.6C1484.1 992.5 1484.1 992.4 1481.9 1018C1480.8 1030.4 1479.5 1041.6 1478.9 1042.9C1477.9 1045.2 1477.8 1045.3 1467.7 1044.7C1462.1 1044.4 1437 1042.3 1412 1040.1C1387 1037.9 1353 1034.9 1336.5 1033.5C1305 1030.8 1299.6 1030 1298.6 1027.5C1298.3 1026.6 1299.6 1008.3 1301.5 986.7C1305.3 943.9 1310.4 886 1312.2 865.5C1313 856.2 1313.7 852 1314.9 850.6C1316.8 848.4 1314.2 848.3 1372.5 853.4ZM581.1 863.1C581.7 864.1 583.4 875.9 586.1 898.7C587.5 909.9 587.1 911.4 582.2 912.4C579.6 913 498 923.2 485.1 924.6C478.1 925.4 475 927.4 475 931.3C475 932.6 475.6 934.5 476.4 935.5C478.2 938 479.9 937.9 514.8 933.5C547.4 929.4 556.2 929.2 564.5 932C576.2 936 586.7 945.4 591.2 955.9C595 964.8 599.2 997.6 597.9 1008.4C596.1 1023 586.8 1036 573.4 1042.6C566.2 1046.2 566.2 1046.2 498.9 1054.6C461.8 1059.2 430.1 1063 428.3 1063C426.6 1063 424.5 1062.4 423.8 1061.6C422.9 1060.7 421.4 1052.5 419.7 1038.4C418.2 1026.3 417 1016.2 417 1015.8C417 1012.9 424 1011.7 473.4 1005.5C501.8 1002 525.9 998.6 527 998C529.7 996.5 529.7 990.9 526.9 988.4C524.9 986.6 524.1 986.7 489.9 990.9C463.9 994.1 453.3 995.1 448.8 994.6C431.7 992.6 418.3 981.8 411.9 964.9C409.1 957.6 405.7 929.6 406.3 918.7C406.7 911.1 407.3 908.8 410.4 902.5C414.3 894.7 420.9 887.3 427.5 883.5C436.5 878.3 436.6 878.3 521.5 868C544.6 865.2 566 862.5 569 862C575.2 861.1 580.1 861.5 581.1 863.1ZM1532 869.5C1542.9 870.8 1628.4 882 1639.6 883.5C1647.5 884.6 1647.4 884.1 1643.5 914.4C1641.6 929.9 1639.6 941.8 1638.9 942.7C1637.4 944.4 1629.7 944.1 1615.7 941.8C1609.5 940.8 1608.7 940.9 1607 942.6C1604.8 944.8 1604 950.2 1596 1013.5C1593.1 1036 1590.3 1055.6 1589.6 1057C1588.9 1058.5 1587.5 1059.6 1585.9 1059.8C1580.8 1060.4 1527.7 1053 1525.2 1051.4C1523.1 1050 1522.9 1049.3 1523.4 1046.2C1523.7 1044.1 1526.2 1024.9 1529 1003.5C1531.8 982 1534.7 959.5 1535.5 953.5C1537.6 937.7 1537.5 934.4 1534.8 932.6C1533.5 931.8 1526.9 930.4 1520 929.5C1513.1 928.6 1506.9 927.4 1506.3 926.8C1504.2 925.1 1504.4 922.6 1510.6 876.1C1511.4 870 1513.6 867.1 1517.1 867.6C1518.4 867.8 1525.1 868.6 1532 869.5ZM1663.9 965.6C1752.9 1004.4 1803.5 1043.2 1808.9 1076.7C1811.6 1093.7 1803.3 1109.6 1785.6 1121.9C1756.2 1142.2 1704 1155.8 1626.3 1163.4C1613.1 1164.7 1610.4 1164.7 1606.4 1163.5C1600.1 1161.6 1596 1157.6 1596 1153.2C1596 1144.9 1599.1 1143.5 1623.2 1141C1716.2 1131.1 1769.2 1112.9 1777.5 1087.9C1779.8 1081.1 1779 1075.4 1774.4 1066.1C1762.4 1041.8 1713.1 1010.2 1640 979.8C1632 976.5 1625.4 973.7 1625.2 973.5C1625.1 973.4 1625.3 971.9 1625.6 970.2C1626.2 967.1 1626.2 967.1 1632.9 967.2C1640 967.3 1646 965.8 1650 962.9C1651.4 961.9 1652.7 961 1652.9 961C1653.1 961 1658 963.1 1663.9 965.6ZM1010.9 1004.2C1011 1016.9 1011.3 1027.6 1011.5 1028C1011.8 1028.4 1023.8 1029.1 1038.2 1029.5C1052.7 1029.9 1069.9 1030.8 1076.5 1031.5C1088.5 1032.8 1088.5 1032.8 1060 1032.8C1044.3 1032.8 1030.3 1033.1 1028.7 1033.5C1027.2 1033.9 1025.4 1033.8 1024.7 1033.3C1024.1 1032.8 1018.9 1032.4 1013.3 1032.6C1003.8 1032.7 1001.3 1032.2 1004.1 1030.5C1006.4 1029 1006.9 1024.1 1007 1003.2C1007.1 982.9 1007.3 981.4 1009 981.3C1010.7 981.1 1010.8 982.6 1010.9 1004.2ZM1270.1 991.1C1269.2 993.8 1269.3 994.2 1271.8 995.2C1273.3 995.9 1274.6 996.5 1274.8 996.6C1275 996.7 1275.3 997.9 1275.5 999.3C1276 1001.8 1275.9 1001.8 1272.4 1000.8C1270.4 1000.3 1268.7 1000 1268.5 1000.2C1268.3 1000.4 1266.3 1008.6 1264.1 1018.6C1261.9 1028.5 1259.8 1037.4 1259.4 1038.3C1259 1039.4 1257.7 1040 1255.8 1040C1253.3 1040 1252.9 1039.7 1253.5 1038.2C1254 1036.9 1260.3 1010.7 1262.5 1000.3C1263.1 997.8 1265 998.4 1239 992C1229.9 989.7 1222.1 987.4 1221.5 986.8C1218.9 984.1 1246.6 988 1262.1 992.6C1263.2 992.9 1264 991.9 1264.9 989C1266.4 983.9 1270.3 981.8 1270.8 985.7C1271 987 1270.7 989.5 1270.1 991.1ZM1018 1058.7C1018 1069.6 1018.3 1084.2 1018.7 1091.2L1019.3 1104H992V1091.1C992 1083.9 991.6 1077.9 991.2 1077.6C990.7 1077.3 982.6 1077.4 973.2 1077.7L956 1078.3V1104.7L943.1 1104.9L930.1 1105.1L929.8 1095.8C929.6 1090.7 929.3 1076 929.2 1063.2L928.9 1040H955V1046.2C955 1049.7 955.3 1055.5 955.7 1059.3L956.3 1066L973.7 1065.8L991.2 1065.5L991.1 1052.2V1039H1018V1058.7ZM1089.3 1040H1109V1055H1061V1065.7L1075.3 1066.3C1083.1 1066.7 1092.3 1067 1095.6 1067C1101.8 1067 1101.8 1067 1101.4 1070.2C1101.3 1072 1101.1 1074.5 1101.1 1075.7C1101 1078 1101 1078 1081 1078H1061V1088.8L1086.5 1089.5L1112 1090.2V1105H1100.8C1094.6 1105 1077 1104.7 1061.8 1104.3L1034 1103.7V1090.1C1034 1082.6 1034.3 1068 1034.7 1057.6L1035.3 1038.7L1052.4 1039.3C1061.8 1039.7 1078.4 1040 1089.3 1040ZM1181.4 1043C1198.8 1044.7 1208.9 1049 1212.7 1056.3C1215 1060.7 1215 1071.5 1212.7 1075.8C1211.7 1077.6 1208.9 1080.5 1206.4 1082.3C1204 1084 1202 1085.7 1202 1086C1202 1086.4 1203.1 1087.2 1204.4 1087.8C1207.9 1089.4 1209.8 1092.8 1211.1 1099.6C1211.6 1102.8 1212.3 1106.2 1212.6 1107.1C1213 1108.5 1211.6 1108.6 1200.8 1108.2C1194 1108 1188.2 1107.5 1187.9 1107.1C1187.5 1106.8 1186.5 1103.8 1185.5 1100.6C1183.4 1093.2 1179.6 1089.3 1173.7 1088.6C1171.4 1088.3 1165.6 1087.8 1160.9 1087.5C1150.8 1086.8 1151 1086.5 1151 1098.9V1106.3L1137.9 1105.8C1130.8 1105.5 1124.7 1105.1 1124.6 1104.9C1124.4 1104.7 1124.8 1090.5 1125.6 1073.5C1126.3 1056.4 1126.9 1042 1127 1041.5C1127 1040.3 1164.7 1041.4 1181.4 1043ZM901.7 1044.4C913.8 1048.2 919.7 1059.7 915.6 1071.3C913.8 1076.4 911.5 1078.7 905.7 1081.7C899.1 1085 888.5 1086.9 872.7 1087.6C852.9 1088.4 854.6 1087.3 855.4 1098.6L856.1 1108H843C833.4 1108 829.8 1107.7 829.5 1106.7C829 1105 827.1 1044.6 827.6 1044.1C828.4 1043.2 859.8 1042.2 877.5 1042.5C891.8 1042.7 897.8 1043.2 901.7 1044.4ZM1266.5 1047C1284.1 1048.2 1299.5 1049.3 1300.8 1049.6C1302.8 1050 1303 1050.6 1303 1056.3C1303 1059.7 1302.6 1063 1302.2 1063.5C1301.7 1064.3 1294.3 1064.1 1278.2 1063C1265.3 1062.2 1254.6 1061.7 1254.4 1061.9C1254.2 1062.1 1254 1064.7 1254 1067.6C1254 1072.8 1254 1072.8 1259.3 1073.4C1262.1 1073.7 1269.2 1074.2 1275 1074.5C1280.8 1074.8 1287.5 1075.3 1289.9 1075.6C1294.2 1076.2 1294.2 1076.2 1293.8 1081.1C1293.5 1083.8 1293.1 1086.3 1292.8 1086.5C1292.4 1086.9 1285.8 1086.6 1257 1084.7C1253.6 1084.5 1253.6 1084.6 1252.7 1089.4C1252.3 1092.2 1252.3 1094.7 1252.8 1095.2C1253.3 1095.7 1260.4 1096.5 1268.6 1097.1C1276.8 1097.6 1288 1098.4 1293.4 1098.8L1303.4 1099.5L1303.1 1106.5C1303 1110.3 1302.7 1113.7 1302.5 1114C1302.3 1114.4 1224.5 1109.5 1224.5 1109.1C1224.5 1108.6 1228.9 1045.4 1228.9 1045.2C1229.1 1044.7 1235.3 1045 1266.5 1047ZM795.5 1047.5C803.2 1049.6 807.4 1052.2 811 1057.5C815.5 1064.1 815.2 1065 807.8 1065.1C804.3 1065.1 798.4 1065.5 794.5 1065.9C788.4 1066.6 787.1 1066.5 784.2 1064.8C777.8 1060.9 766 1063.4 765.2 1068.8C764.9 1070.9 765.2 1071 773.7 1071.1C778.5 1071.1 783.9 1071.3 785.5 1071.5C787.2 1071.7 791.7 1072.1 795.5 1072.4C803.8 1073.2 812.1 1076.7 814.6 1080.5C818 1085.7 815.9 1096.4 810.2 1102.3C804.6 1108.2 795.9 1111.4 781.5 1113C764.3 1114.8 750.3 1111.5 743.9 1104.3C740.6 1100.4 738.4 1096.3 739.2 1095.5C739.5 1095.2 745.5 1094.4 752.5 1093.8C764.8 1092.8 765.4 1092.9 769.7 1095C773 1096.6 775.3 1097.1 778.1 1096.7C784.7 1095.8 789.8 1091.4 787.1 1088.7C786.5 1088.1 779.2 1087.4 768.3 1087C743.7 1086.1 738.1 1083.5 737.2 1072.6C736.8 1068.1 737.2 1066.4 739.6 1062C742.4 1056.9 747.7 1052.3 753.7 1049.9C763.1 1046 785 1044.8 795.5 1047.5ZM820 1051.5C820 1052.4 819.1 1053 817.6 1053C816.3 1053 814.7 1052.3 814 1051.5C812.9 1050.2 813.3 1050 816.4 1050C818.9 1050 820 1050.4 820 1051.5ZM1222 1055.1C1222 1057.4 1220.4 1057.6 1219.6 1055.4C1218.6 1052.9 1218.9 1052 1220.5 1052.6C1221.3 1053 1222 1054.1 1222 1055.1ZM602.4 1059.6C605.5 1060.8 603.9 1062.7 595.8 1068C582.3 1076.8 564 1091 564 1092.7C564 1096.4 584.5 1142.9 587.4 1145.8C588.5 1146.9 590.9 1145.5 601.8 1137.3C616.7 1126.1 630 1117.6 647.8 1107.9C654.6 1104.2 660.4 1101 660.6 1100.7C660.8 1100.5 658.1 1091.6 654.6 1081.1C648.1 1061.9 648.1 1061.9 650.6 1062.2C653 1062.5 653.7 1063.9 659.2 1079.5C662.5 1088.8 665.5 1096.8 665.9 1097.2C666.2 1097.6 673.5 1094.9 682 1091.1C702.9 1081.9 726.9 1072.7 728.6 1073.4C730.6 1074.2 730.3 1077.7 728.3 1078.5C727.3 1078.9 722.4 1080.7 717.4 1082.5C708.1 1085.9 686.7 1094.8 674.8 1100.2C668.2 1103.2 668.2 1103.2 669.2 1106.4C673.6 1119.7 690.4 1158.7 702.3 1183C710.7 1200 726 1228.4 727.8 1230.2C728.3 1230.7 734.4 1228.6 742.1 1225.2C758.3 1218 778.3 1210.5 794.5 1205.4C801.1 1203.4 806.6 1201.6 806.8 1201.5C807 1201.3 801.7 1185.1 795.1 1165.3C788.4 1145.6 782.4 1127.4 781.6 1124.7C780.2 1120 780.2 1120 783.1 1120C784.7 1120 786.2 1120.6 786.4 1121.2C786.7 1121.9 790.9 1134.9 795.9 1150C809 1189.6 812.4 1198.4 814.3 1198.8C815.2 1199 822.2 1197.6 829.7 1195.6C846.2 1191.4 868.3 1187 887.8 1183.9C904.4 1181.3 903.2 1183.1 900 1165.4C893.8 1131.9 888.2 1094.4 889.3 1093.4C890.6 1092 893 1094.1 893 1096.6C893 1101.4 906.4 1179.7 907.4 1180.7C907.5 1180.9 913.5 1180.3 920.6 1179.5C942.7 1177 959.7 1175.8 983 1175.1L1005.5 1174.5L1005.8 1142.7C1006 1111 1006 1111 1008.5 1111C1011 1111 1011 1111 1011.2 1142.7L1011.5 1174.5L1034.1 1175.2C1057.2 1175.8 1073.6 1177 1096.4 1179.6C1105.5 1180.6 1109.5 1180.7 1110 1180C1110.6 1179.1 1115.5 1151.6 1121.1 1118.7C1121.8 1114.3 1122.7 1112 1123.5 1112C1124.3 1112 1125.1 1112.4 1125.5 1112.9C1125.8 1113.4 1123.7 1127.3 1120.9 1143.7C1118.1 1160.1 1115.6 1175.3 1115.3 1177.6L1114.8 1181.7L1126.1 1183.4C1144.3 1186.1 1167.1 1190.7 1186.3 1195.4L1204.1 1199.7L1205.4 1196.6C1206.2 1194.9 1212.5 1176.3 1219.6 1155.2C1232.4 1117 1232.4 1117 1235.2 1117C1236.7 1117 1238 1117.1 1238 1117.3C1238 1117.5 1237.4 1119.6 1236.6 1122.1C1235.8 1124.5 1232.7 1134.1 1229.6 1143.5C1226.6 1152.8 1221 1169.6 1217.1 1180.7C1209.1 1203.8 1208.7 1201.4 1221 1205C1236.1 1209.4 1260 1218.4 1278.8 1226.7C1284.4 1229.2 1289.2 1231.1 1289.4 1230.9C1290.2 1230 1300.2 1211.6 1308.3 1196C1325.1 1163.8 1350.4 1105 1348.4 1103C1347.2 1101.9 1315.1 1087.8 1307.3 1085C1302 1083.1 1301 1082.4 1301 1080.4C1301 1079.1 1301.4 1078 1301.8 1078C1304.3 1078 1318.4 1083.7 1342.8 1094.5C1347.4 1096.5 1351.3 1098 1351.4 1097.8C1351.7 1097.3 1356.9 1082.4 1360.8 1070.7C1364.3 1060.4 1364.6 1060 1367.3 1060C1370.6 1060 1371.2 1057.5 1362.5 1082.8L1356.2 1101.1L1364 1105C1380.4 1113.2 1405.7 1129.4 1421.4 1141.6C1425.1 1144.6 1428.6 1147 1429.1 1147C1429.6 1147 1432.3 1142.2 1435.1 1136.2C1439.7 1126.4 1454 1093.4 1454 1092.5C1454 1091.8 1439.5 1080.4 1430 1073.6C1424.8 1069.9 1420.3 1066.3 1420.1 1065.8C1419.9 1065.1 1421.2 1064.9 1423.9 1065.3C1428.1 1065.8 1434.8 1070.1 1448.3 1080.7C1452 1083.7 1455.4 1085.9 1455.9 1085.5C1456.4 1085.2 1458.1 1081.7 1459.5 1077.7C1462.7 1069.4 1464 1067.7 1466.4 1068.6C1468.4 1069.4 1468.4 1069.1 1463.9 1081.5L1460.7 1090.6L1470.9 1100.5C1482.9 1112.1 1493.1 1123.9 1501.5 1135.8C1507.4 1144.2 1510 1146.6 1510 1143.7C1510 1142.8 1511.5 1138.6 1513.4 1134.2C1517.1 1125.5 1529.1 1090.7 1529.2 1088.1C1529.3 1087.2 1527.9 1084.1 1526.1 1081.1C1522.9 1075.8 1522.9 1075.8 1525.7 1076.6C1527.2 1077 1530.2 1077.4 1532.2 1077.5C1534.3 1077.6 1536.2 1077.9 1536.6 1078.2C1536.9 1078.5 1536.6 1080.6 1536 1082.7C1534.9 1086.3 1535 1087.1 1538 1092.9C1542.7 1102.4 1548.8 1121.3 1550.5 1132.5C1552.7 1146.2 1553 1147.4 1553.9 1146.4C1554.8 1145.4 1560.2 1112 1562 1097C1564 1079.9 1563.6 1081 1567.3 1081.7C1569.1 1082 1570.8 1082.5 1571.1 1082.9C1572.3 1084.2 1568.2 1115.2 1563.8 1137.5C1541 1253.5 1487.5 1353.5 1404 1435.9C1343.8 1495.3 1267.3 1542.1 1186 1569.1C1051.6 1613.7 905.4 1606.1 776 1547.8C686.4 1507.4 608.7 1443.9 550.2 1363.2C497.3 1290.4 462.6 1205.4 449.5 1116.7C448.2 1107.8 446.8 1097.3 446.4 1093.4C445.8 1086.5 445.8 1086.3 448.1 1085.7C453.3 1084.3 453.8 1084.6 454.5 1091.2C455.7 1103.3 459.2 1125.9 461.6 1137.8C462.5 1142.5 464 1142.8 464 1138.3C464 1129.4 470.8 1107.1 478.6 1090.6C480.4 1086.8 481.6 1083.1 481.3 1082.3C480.9 1081.3 482 1081 485.5 1081C490 1081 490.2 1081.1 488.7 1082.8C487.3 1084.4 487.3 1085.1 489 1091.6C493 1106.6 507.5 1145 509.1 1145C509.4 1145 511.4 1142.4 513.5 1139.2C521.7 1126.9 529.9 1117 542.9 1103.7L556.5 1089.9L553.6 1081.8C551.3 1075.2 551 1073.6 552.1 1072.9C555 1071.1 556.1 1072.4 558.6 1080.2C559.6 1083.4 560.8 1086 561.3 1086C561.7 1086 565.9 1083 570.6 1079.4C579.7 1072.3 598.9 1059 600.1 1059C600.5 1059 601.5 1059.3 602.4 1059.6ZM968 475.1C961.7 475.6 949.1 476.9 940 478C923.5 480 923.5 480 919.3 484.4C913.9 490 913.8 491.4 918.8 490.6C927.9 489.1 957.1 487 974.5 486.5C985 486.2 996.3 485.7 999.8 485.4L1006 484.8V474L992.8 474.1C985.5 474.2 974.3 474.7 968 475.1ZM1011 479.4C1011 484.7 1011 484.7 1014.8 485.4C1016.8 485.7 1024.4 486 1031.5 486C1046.9 486 1082.7 488.4 1098.3 490.5C1103.3 491.2 1103.1 489.5 1097.6 484.1C1093.3 479.9 1093.3 479.9 1076.9 478C1055.3 475.6 1033.5 474 1021.1 474H1011V479.4ZM892.5 486C862.4 492.5 822.5 504.2 823.3 506.3C823.8 507.9 823.4 507.9 847 502.7C858.3 500.2 875.4 496.9 885 495.5C894.6 494.1 903.4 492.7 904.5 492.4C906.1 492.1 911.4 485.9 912.8 482.7C913.3 481.6 912.1 481.8 892.5 486ZM1104 482.7C1104.1 483.2 1105.8 485.4 1107.9 487.8C1111.6 492.1 1111.6 492.1 1127.6 494.5C1145.2 497.2 1164.5 500.9 1179 504.5C1195.1 508.4 1194.2 508.3 1193.8 506.4C1193.5 504.7 1190.7 503.6 1172 498C1155.7 493.1 1140.1 489.2 1122.2 485.5C1102.6 481.5 1104 481.8 1104 482.7ZM986 490.7C964.4 491.3 922.3 494.6 911.5 496.6C908.2 497.2 904 503.3 897.5 516.8C894.3 523.6 886 546.1 886 548.2C886 549.3 887.8 549.2 913 546.6C927 545.1 957.5 543.4 988.3 542.4L1006 541.8V491.2L1002.9 490.6C1001.2 490.3 998.8 490.1 997.6 490.2C996.5 490.3 991.2 490.5 986 490.7ZM1011.6 490.7C1011.3 491.1 1011 502.7 1011 516.5V541.7L1035.3 542.4C1062.2 543.2 1090.4 545.1 1114.2 547.6C1122.9 548.6 1130.3 549 1130.7 548.6C1132.8 546.5 1115.8 506 1109.8 498.8C1107.5 496.2 1107.1 496.1 1085 494.1C1072.6 493 1055.8 491.8 1047.5 491.5C1039.3 491.2 1027.9 490.7 1022.4 490.5C1016.8 490.3 1011.9 490.4 1011.6 490.7ZM895 498.7C893.6 498.9 886.9 500 880 501.1C861.6 504.1 827.9 511.6 814.8 515.6C812.7 516.2 799.6 529.6 792.5 538.5C783.8 549.4 770.2 570.5 771.2 571.6C771.5 571.8 778.6 570.3 787.1 568.1C810.8 562.1 841 556.2 870 551.9C874.7 551.2 879 550.2 879.6 549.6C880.2 549 882.4 543.5 884.4 537.3C888.2 525.3 894.5 510.4 898.5 503.5C902 497.6 902 497.5 895 498.7ZM1116 498.4C1116 498.6 1118 502.5 1120.4 507.1C1125.6 516.9 1130.2 528.2 1133.7 539.5C1135 543.9 1136.4 548.1 1136.9 548.9C1137.4 549.9 1144.1 551.4 1158.6 553.7C1180.9 557.2 1203.7 561.8 1229.5 568C1238.3 570.2 1245.6 571.7 1245.9 571.4C1246.9 570.4 1233.3 548.9 1225.6 539.5C1217.3 529.3 1206.5 517.8 1204 516.5C1197 512.9 1148.9 502.3 1124.7 499C1115.8 497.9 1116 497.9 1116 498.4ZM809.5 511C809.2 511.5 809.4 512 809.9 512C810.5 512 811 511.5 811 511C811 510.4 810.8 510 810.6 510C810.3 510 809.8 510.4 809.5 511ZM790 523.2C758.1 534.3 743.6 540.6 726.1 550.9C715.4 557.2 711.9 560 701.5 570.4C690.4 581.5 672 604.3 672 606.9C672 608.2 674.2 608.4 675.6 607.1C679.7 603.4 738.3 581.5 758.7 576C762.2 575.1 763.3 574.2 764.8 571.2C770.8 558.8 783.3 540.6 794.4 528.2C799.6 522.4 801.1 519.8 799.3 520.1C798.8 520.2 794.7 521.6 790 523.2ZM1217 520.7C1217 521.2 1219.9 524.7 1223.3 528.7C1231.5 538.1 1239.8 549.7 1247.6 562.6C1251 568.3 1254 573.4 1254.2 573.8C1254.4 574.3 1260.8 576.6 1268.5 579C1286.9 584.7 1314.2 594.8 1331 602.1C1338.4 605.4 1344.8 607.9 1345.3 607.7C1346.3 607.4 1337.1 594.4 1328.5 583.9C1318.4 571.9 1303.3 558 1293.9 552.3C1278 542.5 1256.6 533 1230.6 524.1C1218.3 519.8 1217 519.5 1217 520.7ZM965.4 548.1C935.8 549.3 885.5 554 883.9 555.7C882.8 556.9 876.6 585 877.3 585.7C877.7 586 886.8 585.3 897.7 584.1C930.6 580.6 973.6 578 998.8 578H1006V547L994.8 547.2C988.6 547.2 975.3 547.7 965.4 548.1ZM1011 562.2V577.7L1033.3 578.4C1062.5 579.3 1083.1 580.6 1107.5 583.1C1118.5 584.2 1130.4 585.4 1133.9 585.7L1140.3 586.3L1139.6 581.9C1138.3 573.5 1133.8 556 1132.8 555.4C1129.5 553.3 1069 548.5 1032.8 547.4L1011 546.8V562.2ZM870 557.1C849.9 560.3 842.6 561.5 827 564.6C812.3 567.6 785 573.9 770 578C766.4 579 766 579.5 762.2 588.3C755.8 602.9 753 610.3 753.5 610.8C753.8 611.1 764.2 608.8 776.7 605.7C806.8 598.2 846 590.6 865 588.4C868.3 588 871.3 587.3 871.7 586.7C872.2 585.9 876.1 567.9 877.7 559.2C878.3 555.6 878.7 555.7 870 557.1ZM1139 556.5C1139 556.9 1139.7 560.2 1140.5 563.9C1141.4 567.5 1142.8 574.3 1143.8 579L1145.5 587.4L1160.3 589.6C1187.2 593.6 1219.7 600.4 1250.8 608.4C1258 610.3 1264 611.4 1264 610.8C1264 609.4 1256.3 590.3 1253.2 584.1L1250.5 578.7L1235.5 574.9C1214.2 569.5 1186.4 563.6 1165.5 560.1C1140 555.9 1139 555.7 1139 556.5ZM680.8 580.8C678.3 582.8 672.4 587.3 667.8 590.7C650.5 603.5 607.6 642 609.9 642.8C610.5 643 615.3 640.4 620.5 637.1C625.7 633.7 636.8 627.1 645.2 622.5C657.4 615.7 661 613.2 662.9 610.3C666.8 604 677.1 589.8 681.5 584.5C688.7 575.8 688.5 574.7 680.8 580.8ZM1332.6 581.2C1337.8 586.7 1344.2 595.2 1351.4 606.2C1354.6 611.1 1357.5 615 1357.9 615C1359.3 615 1383.2 628.4 1394.9 635.8C1411.4 646.1 1411.3 644.8 1394 628.6C1380 615.4 1358.4 597.2 1343.1 585.6C1330.7 576.2 1325.9 574.2 1332.6 581.2ZM738.5 587.9C713.7 596.4 696.8 603 680.5 610.5C676.1 612.5 670.8 614.8 668.8 615.7C665.8 617 664.1 618.9 660.6 624.9C653.9 636.3 647.8 650 649.4 650C650.2 650 655 648 660.1 645.6C679.3 636.6 723.9 620.2 743.2 614.9C746.4 614.1 747.1 613.4 748 610C748.6 607.8 751.1 601.2 753.6 595.3C756.1 589.3 758.4 583.9 758.7 583.2C759.6 581.1 756.1 581.9 738.5 587.9ZM1258.9 584.2C1259.4 585.5 1261.1 589.4 1262.7 593C1264.3 596.6 1266.7 602.4 1268 606C1269.3 609.6 1270.8 613 1271.4 613.6C1272 614.3 1277.4 616.2 1283.4 618C1305.5 624.5 1343.1 638.7 1360.9 647.4C1367.6 650.7 1368 650.7 1368 648.8C1368 647.6 1364.6 640.1 1360.4 632.1L1352.8 617.5L1344.2 613.6C1316 600.9 1265.4 582 1259.8 582C1258.4 582 1258.2 582.5 1258.9 584.2ZM968.8 584C934.4 585.5 877.9 590.7 876 592.6C875.1 593.6 874.8 595.1 872.5 611.5C869.6 633 869.2 638.1 870.7 638.7C871.5 639 876 638.8 880.8 638.1C910.8 634.2 953.2 631.1 975.6 631C983.9 631 994.1 630.7 998.4 630.4L1006 629.7L1005.8 606.6L1005.5 583.5L996.5 583.4C991.6 583.3 979.1 583.6 968.8 584ZM1011 606.3V629.7L1018.7 630.4C1022.9 630.7 1033.1 631 1041.4 631C1062.8 631 1097.3 633.4 1129.3 637.2C1139.1 638.3 1147.3 639.1 1147.5 638.9C1148 638.3 1145.2 613.9 1143.1 601.5L1141.5 591.5L1135 590.8C1131.4 590.5 1121.8 589.5 1113.5 588.6C1092.8 586.5 1057.6 584.2 1032.3 583.5L1011 582.9V606.3ZM842 597C816.4 601.4 793.5 606.2 771 612.1C762.5 614.4 754.5 616.4 753.3 616.7C751.7 617.1 750.5 618.7 749.1 622.4C746.4 629.7 743.2 641.7 740.5 654.2C738.4 663.9 738.4 665 739.9 665C740.8 665 752.3 662.4 765.5 659.1C778.7 655.9 794 652.3 799.6 651.1C811.9 648.5 856.5 641 860 641C861.4 641 863 640.6 863.7 640.2C864.3 639.8 865.9 630.6 867.5 618.5C868.9 606.9 870.4 596.5 870.7 595.2C871.2 593.2 870.9 593 867.9 593.1C866 593.1 854.4 594.9 842 597ZM1147 594.6C1147 595.7 1148.2 606.1 1149.7 617.9C1152.1 637.1 1152.6 639.3 1154.4 640C1155.6 640.5 1164.6 642 1174.5 643.5C1198.4 647 1227.7 652.9 1254.1 659.6C1266 662.5 1276.4 665 1277.3 665C1278.6 665 1278.8 664.3 1278.4 661.7C1277 653.9 1273.7 640.6 1270.4 629.3C1266.7 617.1 1266.7 617.1 1262.6 616.2C1260.4 615.6 1251.3 613.4 1242.5 611.1C1215.6 604.1 1173.4 595.8 1152.8 593.4C1147.6 592.8 1147 593 1147 594.6ZM722.5 626.4C700.5 633.8 679.3 642.1 659.1 651.4C651.2 654.9 644.7 658 644.5 658.2C643.7 659.1 636.8 678.9 634.1 688C632.4 693.8 630.5 699.9 630 701.6C628.7 705.6 628.7 706 630.3 706C631 706 639.2 702.6 648.6 698.4C668.9 689.4 693.5 680 716 672.9L732.6 667.7L735.4 655.1C736.9 648.2 739.5 637.9 741.1 632.2C743.8 622.7 744 619.9 742.2 620C741.8 620 733 622.9 722.5 626.4ZM1273.7 620.7C1273.5 621.2 1274.7 626.7 1276.5 633.1C1278.3 639.5 1280.9 649.8 1282.1 656C1284 665.1 1284.8 667.4 1286.5 668C1287.6 668.4 1298.9 672.2 1311.7 676.4C1332.7 683.3 1356.8 692.7 1378.8 702.5C1383.4 704.5 1387.4 706 1387.7 705.7C1388.4 704.9 1382.9 685.6 1377.7 671L1373.3 658.5L1366.4 655.1C1347.3 645.8 1317.4 633.9 1292.4 625.6C1273.8 619.5 1274.3 619.7 1273.7 620.7ZM638.7 631.9C614.9 645.7 594.7 660.3 590.8 666.5C583.4 678.3 574 694 574 694.6C574 695.8 576.7 694.2 585.5 687.9C597.7 679.3 613.4 669.5 627.9 661.5C635.6 657.3 640.4 654 640.9 652.6C641.4 651.5 644.5 644.8 647.9 637.9C651.2 631 654 625 654 624.6C654 623.3 652.1 624.2 638.7 631.9ZM1363 624.3C1363 624.5 1366.4 631.7 1370.5 640.1C1377.9 655.6 1377.9 655.6 1383.7 658.4C1396.5 664.6 1420.7 679.6 1435.3 690.3C1439 693 1442.3 695 1442.6 694.7C1443.3 694.1 1439.3 686.9 1432.2 675.5C1429.8 671.6 1427.1 667.3 1426.2 665.9C1423.2 660.9 1402.1 645.8 1378.9 632C1367.7 625.3 1363 623 1363 624.3ZM968.5 636.1C940.1 637.3 918.8 639 875.7 643.7C871 644.2 869.6 644.7 868.9 646.4C868.4 647.6 867.6 655 867 663C865.6 684.3 863.5 753.9 864.4 754.7C864.8 755.1 874.2 754.4 885.3 753.2C919.6 749.3 958.3 747 1004.8 746C1005.8 746 1006 734.6 1005.8 690.7L1005.5 635.5L996.5 635.4C991.6 635.3 979 635.6 968.5 636.1ZM1011.7 635.6C1011.3 636 1011 660.9 1011 691V745.7L1014.3 746.3C1016 746.5 1026.1 746.8 1036.5 746.9C1064.6 747.1 1109.3 750.1 1136 753.5C1142.3 754.3 1148.7 755 1150.4 755H1153.3L1152.7 723.1C1152 690.6 1149.4 646 1148.2 644.8C1144.8 641.5 1014.6 632.7 1011.7 635.6ZM1153 646.7C1153 647.7 1153.7 658.8 1154.4 671.5C1155.2 684.1 1156.2 708.3 1156.6 725.2C1157.2 752.3 1157.5 756 1158.9 756.4C1159.8 756.7 1164.8 757.4 1170 758C1197.4 761.4 1263.1 775.1 1287.3 782.6C1288.9 783.1 1289 782 1289 769.2C1289 743 1286.4 709.3 1282.3 683.2C1281 674.8 1280.3 672.6 1278.6 671.5C1275.7 669.7 1236.6 660 1212 655C1195.3 651.6 1156.8 645 1153.8 645C1153.3 645 1153 645.8 1153 646.7ZM848.5 647.6C806.8 654.9 782.1 660.1 754.6 667.6C734.3 673.1 736.4 670.2 733.1 696C729.6 722.9 726.8 770.2 728.7 771.3C729.2 771.6 736.8 772.4 745.5 773C760.5 774.1 762.1 774 771.5 772C792.4 767.5 821 762.1 834 760C854.9 756.8 859.3 756.1 859.6 755.7C859.8 755.6 860.4 738.4 861 717.5C861.6 696.6 862.5 673.9 863 667C863.5 660.1 864 652.6 864 650.2C864 646 864 646 860.3 646.1C858.2 646.1 852.9 646.8 848.5 647.6ZM1381 663.7C1381 664 1383.2 671.1 1385.9 679.4C1388.6 687.7 1391.6 698 1392.6 702.4C1394.5 710.2 1394.5 710.2 1400.5 713.2C1418.8 722.5 1446.8 739.9 1460.6 750.5C1469.7 757.5 1471.5 758.3 1470.4 754.7C1467.1 744 1453.3 712.2 1450.6 709.2C1444.7 702.6 1416.7 683.1 1395.3 670.7C1382.1 663 1381 662.4 1381 663.7ZM619.2 672.4C597.8 685.2 578.4 698.6 568.3 707.7C566.2 709.5 563.3 714.8 559.5 723.3C552.6 739 545.7 757.1 546.4 757.8C546.7 758.1 551.1 755.2 556.2 751.3C572.2 739.2 594.6 725.2 614.1 715L622.7 710.6L624.5 702.9C625.4 698.7 628.6 688.2 631.5 679.6C635.9 666.4 636.4 664 635 664C634.1 664 627 667.8 619.2 672.4ZM1286.3 677.7C1286.9 681.3 1288.5 694.6 1291 715.6C1291.5 720.6 1292.5 738 1293.1 754.1C1293.7 770.3 1294.5 783.8 1294.8 784.2C1295.2 784.5 1306.3 788.4 1319.5 792.8C1344 800.9 1370.9 811.4 1390.3 820.2C1396.3 823 1401.4 824.9 1401.8 824.5C1402.8 823.6 1402.3 799.5 1401 783C1399.5 764 1397.5 749.1 1393.9 730.2C1391 715.5 1390.5 713.7 1388.4 712.8C1387.1 712.2 1386 711.4 1386 711C1386 710.6 1385.4 710.3 1384.8 710.3C1384.1 710.3 1377.9 707.8 1371 704.7C1346.2 693.6 1292.9 674 1287.4 674C1286 674 1285.9 674.7 1286.3 677.7ZM713 679.9C686.5 688.6 659 699.6 634.3 711.1C627.2 714.5 627.1 714.5 625.6 720C622.6 731 617.5 764.4 618.6 766.2C618.9 766.6 623.5 767 628.8 767C634.1 767 646.6 767.4 656.5 767.9C711.2 770.8 722.1 771.3 722.6 770.7C723 770.4 723.6 761.4 724.1 750.7C725.1 727.3 726.3 712.4 729 691.9C730.1 683.4 731 676.2 731 675.7C731 674.3 727.5 675.2 713 679.9ZM1446 687.5C1446 688 1448.1 692.2 1450.6 696.9C1455.1 705.2 1461.4 713 1465.4 715.2C1468.5 716.9 1466.9 714 1457.4 701C1449.3 689.7 1446 685.8 1446 687.5ZM567.9 690.9C561 699.4 549.9 715.2 550.4 715.7C551.9 717.3 561.8 706 566.3 697.6C568.9 692.7 570.8 688.5 570.6 688.3C570.4 688.1 569.2 689.2 567.9 690.9ZM607.5 725.1C590.6 734.5 571.7 746.6 558.5 756.5L546.5 765.5L577.5 766.3C594.6 766.7 609.5 766.8 610.7 766.5C612.3 766.1 613 765 613.4 762.3C613.7 760.2 615.1 751.5 616.6 743C620 722.3 620.4 719 619.4 719C618.9 719 613.6 721.8 607.5 725.1ZM1463 721.4C1463 721.7 1465.1 727 1467.7 733.2C1470.2 739.4 1474 749.3 1476 755.2C1479.1 764.1 1480.4 766.4 1483.6 769.2C1491.9 776.3 1497.5 781.9 1506.3 791.8C1511.3 797.5 1515.6 801.7 1515.8 801.1C1516.2 799.9 1500.2 767.7 1493.6 756.5C1491 752.1 1487 746.2 1484.7 743.5C1473.2 729.5 1463 719.2 1463 721.4ZM545.4 729.2C535.2 739.6 529.1 747.5 523.7 756.8C521.1 761.2 519 765.2 519 765.5C519 765.8 523.2 766 528.3 766H537.6L539.4 760.2C540.8 755.7 547.1 739.6 553.7 723.2C554.9 720.4 552 722.4 545.4 729.2ZM939.7 756.6C919.2 757.9 869 762.6 866 763.5C864.1 764.1 863.7 767.4 864.5 776.6L865.1 783.7L881.3 785.4C901.1 787.5 960.9 795 985.5 798.5C995.4 799.9 1004.1 801 1004.8 801C1005.7 801 1006 795.7 1006 778V755L983.3 755.1C970.7 755.2 951.1 755.9 939.7 756.6ZM851 765.7C849.6 765.9 839.3 767.7 828 769.5C796.9 774.8 794.8 775.2 795.7 776.1C796.3 776.7 854.9 783 860 783C860.4 783 860.6 780.6 860.5 777.7C860.4 774.9 860.2 770.8 860.1 768.7C860 765.2 859.8 765 856.8 765.1C855 765.2 852.4 765.5 851 765.7ZM504 795.1C502.3 798.4 501 801.7 501.2 802.3C501.4 803 504.3 800.2 507.8 796.2L514.1 789H510.6C507.2 789 506.8 789.4 504 795.1ZM615.6 792.1C614.7 796.9 614.9 825 615.9 825C616.3 825 622.7 822.3 630 819C646 811.7 671.8 801.4 685.5 796.9C691 795.1 695.9 793.3 696.3 792.9C697.6 791.9 647.5 789.1 625.9 789C616.3 789 616.3 789 615.6 792.1ZM988 890.7C983.5 892.4 982.6 899 986.4 901.6C988.5 902.9 991.8 903.1 1008 902.8C1025.6 902.5 1027.3 902.3 1028.6 900.6C1030.4 898.1 1030.4 894.9 1028.6 892.4C1027.3 890.7 1025.7 890.5 1008.3 890.3C998 890.2 988.8 890.4 988 890.7ZM1182.1 895.9C1179.7 898.3 1179.4 901.8 1181.3 904.5C1182.5 906 1184.8 906.4 1196.1 907.1C1217.2 908.4 1222.6 908.2 1224.4 906.4C1226.3 904.6 1226.5 898.7 1224.7 897.2C1224.1 896.6 1218.5 895.9 1212.5 895.6C1206.4 895.2 1197.6 894.7 1192.8 894.4C1185 893.9 1183.9 894.1 1182.1 895.9ZM1152.9 1061.1C1152.8 1063.5 1152.7 1066.9 1152.5 1068.7C1152.2 1071.9 1152.3 1071.9 1157.7 1072.6C1165.1 1073.5 1182 1072.6 1184.7 1071.2C1187.3 1069.8 1188.4 1066.8 1187.6 1063.5C1186.7 1059.8 1180.5 1058 1165.9 1057.3L1153 1056.7L1152.9 1061.1ZM858.3 1057.7C854 1058.1 854 1058.1 854 1062.4C854 1064.8 854.3 1068.2 854.7 1070L855.3 1073.3L867.9 1072.7C882.8 1072.1 887.7 1070.9 889.2 1067.4C891 1063.6 889.2 1059.7 885 1058.3C881.7 1057.2 867.7 1056.9 858.3 1057.7ZM480.1 1100.2C473.1 1115.8 469.1 1132.1 468.3 1148.5L467.7 1161.5L473.3 1175.5C480.7 1194.2 486.7 1207 488 1207C488.5 1207 489 1205.7 489 1204.1C489 1199.9 491.4 1188.9 494.5 1179.1C497.6 1169.2 503.8 1154.8 505.3 1153.8C506 1153.4 505.2 1150.5 503.2 1145.8C499 1136.2 491.1 1114.9 487.5 1103.2C485.9 1098.2 484.2 1094 483.8 1094C483.3 1094 481.7 1096.8 480.1 1100.2ZM1451.7 1112.3C1447.9 1121.2 1442.3 1133.7 1439.2 1140L1433.5 1151.5L1445.1 1163C1457.4 1175.3 1465.5 1184.9 1474 1197.3L1479.4 1205.1L1482.7 1199.3C1484.6 1196.1 1490.2 1185.2 1495.1 1175C1500.1 1164.8 1504.6 1155.7 1505.1 1154.8C1507.5 1150.2 1484.6 1120.6 1463 1100.3L1458.4 1096L1451.7 1112.3ZM1531.4 1098.7C1529.3 1107.5 1516.1 1143.5 1513 1148.7C1511.1 1151.9 1511.1 1152.1 1513 1155.2C1518.5 1164.8 1526 1187.5 1527.5 1199.7C1527.9 1202.5 1528.7 1205.6 1529.4 1206.5C1530.4 1207.9 1531 1207.2 1533.5 1201.3C1548.7 1165 1548.9 1164.5 1547.1 1144.4C1545.9 1130.6 1542.7 1117.2 1537.8 1105.1C1534.2 1096 1532.5 1094.3 1531.4 1098.7ZM545.9 1108.7C533.8 1121.1 526.3 1130.1 519 1141C516.6 1144.6 513.9 1148.7 512.9 1150.2C511.2 1152.6 511.2 1153.2 512.5 1155.7C513.3 1157.2 518 1166.6 522.8 1176.6C532.5 1196.2 536.8 1204 537.9 1204C538.4 1204 540.9 1200.7 543.5 1196.7C551 1185.5 564 1170.1 574.3 1160.4L583.8 1151.5L578.7 1141C575.9 1135.2 570.4 1123.1 566.5 1114.1C562.6 1105 558.9 1097.5 558.4 1097.3C557.9 1097.1 552.2 1102.3 545.9 1108.7ZM658.5 1108.3C635.6 1120.9 625.1 1127.3 609 1138.9C596 1148.2 591 1152.2 591 1153.5C591 1156.2 612.7 1194.6 627 1217C638.7 1235.2 664.1 1271 665.4 1271C665.7 1271 669.7 1268.1 674.4 1264.5C684.9 1256.4 699.3 1247.1 712.8 1239.6C718.4 1236.5 723 1233.6 723 1233.3C723 1233 720.6 1228.5 717.6 1223.1C701.1 1193.6 678.8 1146.3 667.3 1116.5C665.4 1111.5 663.6 1107.2 663.2 1106.8C662.8 1106.5 660.7 1107.1 658.5 1108.3ZM1352.9 1108.7C1352.3 1110.3 1350.5 1114.9 1349 1119C1338.6 1146.9 1314.5 1197.7 1299 1224.4C1293.9 1233.4 1293.9 1233.4 1296.2 1235.2C1297.5 1236.2 1298.8 1237 1299.2 1237C1302.2 1237.1 1336.7 1259.3 1346.3 1267.2C1350.2 1270.5 1351.3 1271 1352.5 1270C1354.6 1268.2 1367.9 1250.1 1379.2 1233.5C1393.8 1212.2 1409.6 1185.9 1422.3 1161.9L1426.9 1153.2L1420.7 1148.3C1404.3 1135.1 1388.7 1124.7 1367.3 1112.9C1360.4 1109.1 1354.6 1106 1354.4 1106C1354.1 1106 1353.5 1107.2 1352.9 1108.7ZM573.4 1169.2C560.4 1182.6 555.2 1189 546.6 1202.2L540.9 1210.9L545.6 1218.7C559 1240.9 580.5 1271 596.9 1290.5C607 1302.5 622.2 1319 623.1 1319C623.6 1319 625.9 1316 628.3 1312.2C634 1303.4 646.2 1288.9 654.5 1281.2L661.1 1274.9L652.3 1262.7C628.6 1230.1 606.2 1194.5 591 1165.2C588.6 1160.7 586.4 1157 586 1157C585.6 1157 579.9 1162.5 573.4 1169.2ZM1430.3 1158.2C1429.8 1158.9 1426.3 1165.3 1422.6 1172.4C1407.8 1200.5 1384.7 1236.8 1363.3 1265.2L1356 1274.9L1365.3 1284.2C1375.1 1293.9 1384.2 1304.9 1389.9 1313.8C1391.7 1316.6 1393.6 1319 1394 1319C1396.3 1319 1422.8 1288.2 1438.5 1267.5C1448.6 1254.1 1468.6 1224.4 1473.5 1215.4L1476.3 1210.4L1469.3 1199.9C1460.1 1186.3 1452.1 1177.1 1436.3 1161.7C1432.4 1158 1431.1 1157.2 1430.3 1158.2ZM507.2 1161.2C505.8 1162.9 499.1 1180.3 497.4 1186.5C495.3 1194.3 493.1 1207.9 492.9 1214.5C492.8 1219.9 493.2 1221.3 497.5 1229C503.8 1240.4 517 1261.9 518 1262.5C519.1 1263.2 519.5 1261.5 521.4 1250.3C523.2 1239.8 526.7 1228.8 531.5 1218.2L534.9 1210.9L527.8 1197.7C523.8 1190.4 518 1179 514.8 1172.2C511.5 1165.5 508.8 1160 508.6 1160C508.4 1160 507.8 1160.6 507.2 1161.2ZM1498.8 1179.8C1493.5 1190.6 1487.6 1202 1485.7 1205.1L1482.3 1210.7L1485.2 1217.1C1489.9 1227.3 1494.8 1242.7 1496.6 1253.2C1497.6 1258.6 1498.6 1263 1499 1263C1499.9 1263 1510.6 1245.2 1521.7 1225C1524.8 1219.5 1524.8 1219.4 1523.9 1210C1522.9 1198.9 1520.8 1188.6 1517.5 1179C1514.6 1170.5 1509.9 1160 1509.1 1160.1C1508.8 1160.1 1504.1 1169 1498.8 1179.8ZM968.5 1180.6C954.3 1181.5 932.1 1183.3 921 1184.6C914.1 1185.4 908.4 1186 908.3 1186C908 1186 908.4 1188.2 913 1211.5C919.2 1243 927.3 1278.9 933.8 1304C936.5 1314.5 936.6 1314.5 939.5 1314.3C941.2 1314.2 949.9 1313.4 958.9 1312.5C968 1311.7 979.9 1311 985.4 1311C991 1311 997.9 1310.7 1000.8 1310.4L1006 1309.7V1180L989.8 1180.2C980.8 1180.3 971.3 1180.5 968.5 1180.6ZM1011 1244.7V1309.7L1014.8 1310.4C1016.8 1310.7 1023.2 1311 1029 1311C1038.9 1311 1070.8 1313.4 1077.5 1314.6C1080.6 1315.1 1080.6 1315.1 1087.8 1285.8C1097.3 1246.9 1109.9 1187.5 1108.7 1186.4C1107.1 1184.8 1062.1 1181.1 1034.3 1180.3L1011 1179.7V1244.7ZM889 1188.7C867.6 1192.3 816.8 1203.2 815.2 1204.5C815.1 1204.6 816.6 1208.9 818.5 1214.1C820.5 1219.3 823.4 1226.9 825 1231C828.4 1240.2 840.9 1269.6 845.7 1279.9C847.6 1284.1 850.3 1290.2 851.7 1293.5C853.9 1298.7 867.7 1327 868.5 1327.8C868.7 1328 875.5 1326.5 883.6 1324.6C898.9 1321 916.5 1317.6 925.7 1316.5C928.6 1316.1 931.2 1315.5 931.4 1315.1C931.6 1314.8 929.9 1306.6 927.5 1297C920.4 1268.1 904 1191.9 904 1187.6C904 1186.7 898.3 1187.1 889 1188.7ZM1108.2 1213.7C1103 1239.9 1090.8 1294.1 1087 1307.6C1086 1311.4 1085.3 1314.7 1085.6 1315.1C1085.8 1315.5 1088.4 1316.1 1091.3 1316.5C1099.2 1317.5 1121 1321.8 1134.7 1325.1C1141.5 1326.7 1147.4 1328 1147.9 1328C1149.1 1328 1161.3 1303.1 1172.7 1277.5C1182.7 1255.1 1200.9 1210 1201.3 1206.8C1201.5 1204.8 1200.6 1204.3 1193 1202.3C1172.6 1196.8 1122.8 1187 1115.5 1187C1113.7 1187 1113 1189.4 1108.2 1213.7ZM480 1207.5C480 1210.1 486.1 1226 487.2 1226C487.6 1226 488 1224.8 488 1223.2C488 1220.1 480.1 1204.4 480 1207.5ZM1207.1 1208.3C1206.6 1209.5 1203.3 1218.2 1199.7 1227.6C1189.6 1253.9 1175.9 1285.5 1162.1 1314.4C1158.2 1322.6 1155.3 1329.7 1155.7 1330.1C1156.2 1330.5 1161.9 1332.6 1168.5 1334.8C1175.1 1337 1186.5 1341.4 1193.9 1344.5C1201.2 1347.6 1207.5 1349.8 1207.9 1349.3C1208.2 1348.8 1212.1 1343.9 1216.6 1338.4C1229.5 1322.5 1245 1301.5 1256.8 1283.9C1265.2 1271.4 1286 1237.8 1286 1236.8C1286 1234.7 1246.1 1218.3 1223.5 1211.1C1216.4 1208.8 1209.9 1206.7 1209.2 1206.5C1208.5 1206.2 1207.6 1207 1207.1 1208.3ZM790.5 1212.4C768.2 1219.8 735.1 1233.1 731.7 1236C730 1237.5 760.7 1285.5 779.8 1311.3C791.4 1327 808.3 1348.5 809.7 1349.3C810.2 1349.7 816.5 1347.4 823.6 1344.4C830.7 1341.3 842.4 1336.8 849.5 1334.4C856.7 1332 862.4 1329.7 862.3 1329.2C862.2 1328.8 859.6 1323 856.5 1316.4C839.7 1281.2 827.1 1252.1 815 1220.7C811.2 1211 809.2 1207 808.1 1207.1C807.2 1207.1 799.3 1209.5 790.5 1212.4ZM1535.3 1209.1C1532.8 1212.3 1529 1221.2 1529 1224C1529 1228 1530.1 1227.8 1532.2 1223.2C1536.3 1214.5 1538.2 1205.5 1535.3 1209.1ZM1475.6 1222.3C1462.7 1245.6 1432.2 1286.3 1406.1 1314.8C1396.7 1325.2 1396.6 1325.2 1397.9 1328.3C1404.4 1344.4 1408 1357.3 1408 1364C1408 1365.6 1408.4 1367.2 1409 1367.5C1410.2 1368.2 1433 1346.2 1447.8 1330C1459.6 1317.2 1478.4 1294 1487.4 1281.1C1493.1 1273 1493.3 1272.5 1493.1 1267.1C1492.5 1253.6 1487.5 1234 1481.9 1222.7C1480.3 1219.6 1478.9 1217 1478.7 1217C1478.6 1217 1477.2 1219.4 1475.6 1222.3ZM532.9 1228.7C528.6 1239.9 524.2 1258.4 523.9 1267.4C523.7 1272.3 524 1273 530.8 1282.5C540.2 1295.6 554 1312.8 566.6 1327.1C577.6 1339.5 603.4 1365.1 606.7 1366.8C608.7 1367.9 608.8 1367.6 609.4 1362.2C610.4 1354.1 613.8 1341.7 617.5 1332.9L620.7 1325.4L611.7 1315.4C585.7 1286.7 561.2 1254.2 542.7 1224.1C540.7 1220.7 538.6 1218 538.1 1218C537.6 1218 535.3 1222.8 532.9 1228.7ZM493.9 1235.7C493.7 1236.7 493.7 1236.3 495 1244.6C495.6 1248.3 497.6 1254.8 499.4 1259C505.4 1272.6 519.4 1300 520.3 1300C520.9 1300 521 1297.9 520.6 1295.2C520.3 1292.6 519.7 1286.7 519.3 1282C518.8 1274.8 518.2 1272.9 515.8 1269.5C514.2 1267.3 509 1258.9 504.3 1250.7C496.3 1236.9 494.2 1233.8 493.9 1235.7ZM1515.6 1246.8C1511.8 1253.2 1506.3 1262.1 1503.5 1266.5C1498.3 1274.4 1498.2 1274.7 1497.6 1284C1497.2 1289.2 1496.7 1295 1496.4 1296.7C1496 1298.6 1496.2 1300 1496.8 1300C1497.7 1300 1514.2 1267.7 1519 1256.5C1521.4 1250.9 1524.2 1236.9 1523.2 1235.8C1522.8 1235.4 1519.4 1240.3 1515.6 1246.8ZM714.6 1245.1C696.5 1255.1 668.5 1274.2 669.2 1276C669.8 1277.6 686.9 1298.7 698 1311.5C710.8 1326.2 759.3 1374.8 763.2 1376.9C765.6 1378.1 766.2 1377.9 773.5 1372.4C777.8 1369.3 786.1 1363.8 791.9 1360.4C797.7 1356.9 803.1 1353.7 803.8 1353.3C804.7 1352.7 803.1 1350 797.8 1343.5C777.7 1318.4 754.9 1285.8 737.6 1257.5C732.2 1248.7 727.2 1240.9 726.6 1240.3C725.7 1239.3 723.1 1240.3 714.6 1245.1ZM1286 1247.7C1264.6 1283 1240.8 1317.2 1218.6 1344.5C1214.1 1350 1212.5 1352.7 1213.3 1353.3C1214 1353.7 1219.6 1357.1 1225.7 1360.8C1231.9 1364.5 1240.2 1369.9 1244.2 1372.8C1250.2 1377.3 1251.7 1378 1253.5 1377.2C1257.1 1375.5 1299.3 1333.5 1314.3 1316.7C1328.8 1300.3 1348 1277.1 1348 1275.8C1348 1274.8 1331.1 1262.3 1321 1255.8C1313.5 1251 1292.5 1239 1291.6 1239C1291.5 1239 1288.9 1242.9 1286 1247.7ZM655.4 1288.3C644.5 1299.5 639 1306.1 632.1 1316.3L626.8 1324.1L636.5 1333.6C658.2 1354.6 676.8 1370.6 698.5 1387C714.2 1398.7 733.4 1412 734.8 1412C735.4 1412 737.6 1409.4 739.7 1406.2C741.8 1403.1 747.5 1396.4 752.4 1391.3L761.2 1382.1L757.9 1379.3C750.3 1373.2 716.8 1339.7 701.9 1323.5C694.7 1315.7 679.3 1297.6 670.9 1287.3L664.3 1279.1L655.4 1288.3ZM1341.4 1293.2C1318.1 1321.7 1288.1 1353.7 1267.4 1372.2C1261.7 1377.3 1257 1381.8 1257 1382.3C1257 1382.7 1260.3 1386.5 1264.4 1390.7C1268.5 1394.8 1274 1401.3 1276.7 1405.1C1279.3 1408.9 1281.9 1412 1282.4 1412C1283.7 1412 1302.9 1398.9 1316 1389.1C1338.4 1372.4 1376.8 1339 1386.8 1327.6L1390 1323.9L1386.4 1318.2C1379.8 1307.9 1374.8 1301.6 1364.1 1290.7C1358.4 1284.8 1353.3 1280 1352.9 1280C1352.6 1280 1347.4 1286 1341.4 1293.2ZM524.7 1284.6C523.9 1285.9 525.3 1295.6 527.4 1303.8C531.1 1317.7 535.1 1326.3 544.6 1340.7C559.2 1362.8 577.4 1384.1 597.1 1401.9C606.7 1410.6 608.8 1412.5 614.3 1416.9C617 1419.1 617.1 1417.8 614.9 1411.4C611.7 1402.4 609 1389.2 609 1382.4C609 1376.3 609 1376.3 603.3 1371.3C580.3 1351.3 549.3 1316.6 527.4 1286.5C526.3 1284.9 525.1 1284.1 524.7 1284.6ZM1484.7 1293.7C1473 1309.2 1460.2 1324.5 1447.3 1338.5C1435 1351.9 1414.2 1371.9 1411.1 1373.3C1409.7 1374 1409.1 1376.4 1408.1 1384.8C1406.9 1394.8 1404.2 1407 1401.8 1413.2C1399.6 1418.9 1401.9 1418.1 1412.1 1409.3C1441.5 1383.8 1474.6 1343 1483.8 1320.8C1488.7 1309.2 1494.7 1284 1492.6 1284C1492.3 1284 1488.8 1288.4 1484.7 1293.7ZM981 1316C956.7 1317.3 939.9 1319.2 939.3 1320.7C938.5 1322.7 942.7 1337.8 951.3 1364C959.4 1388.5 962.2 1395.8 970.7 1414.7L976.3 1427.2L987.4 1426.6C993.5 1426.2 1000.2 1425.7 1002.3 1425.4L1006 1424.8L1005.8 1370.2L1005.5 1315.5L1000 1315.4C997 1315.3 988.4 1315.6 981 1316ZM1011.5 1316.2C1011.2 1316.9 1011.1 1341.8 1011.2 1371.4C1011.5 1418.4 1011.7 1425.3 1013 1425.5C1013.8 1425.6 1020.4 1425.9 1027.5 1426.1L1040.5 1426.5L1044.2 1419.5C1049.4 1409.7 1059 1385.1 1066.1 1363.6C1072.9 1343.3 1079.2 1320.9 1078.5 1320.2C1077.7 1319.4 1056 1317.2 1043 1316.5C1036.1 1316.2 1026.3 1315.7 1021.2 1315.4C1014.1 1315 1011.9 1315.2 1011.5 1316.2ZM916.9 1323C899.8 1326 875.3 1331.6 873 1333C871.7 1333.8 872.1 1335.1 875.4 1341.5C891 1372 918.1 1413.9 933.7 1431.7L936.5 1435L944 1433.1C948.1 1432 955.8 1430.4 961 1429.5C966.2 1428.6 970.6 1427.8 970.7 1427.6C970.8 1427.5 969.6 1424.5 967.9 1420.9C959.2 1402.8 948.1 1371.3 938.8 1339C936.1 1329.4 933.5 1321.2 933.2 1320.9C932.8 1320.6 925.5 1321.5 916.9 1323ZM1080.6 1331.7C1072.8 1360.9 1061.3 1394.7 1052.2 1414.8C1046.3 1428.1 1046.3 1429 1052.3 1429C1055.3 1429 1077.6 1433.7 1079.2 1434.6C1080.7 1435.5 1083.6 1432.5 1093.2 1419.7C1109.4 1398.2 1135.5 1355.9 1144.2 1336.8L1145.8 1333.2L1139.7 1331.6C1124.6 1327.7 1116.6 1326 1103 1323.6C1081.9 1319.8 1084 1319.1 1080.6 1331.7ZM623.3 1331.7C623 1332.7 621.6 1336.1 620.3 1339.3C617.9 1345.2 614.6 1359.3 613.6 1368.3C613.1 1373 613.1 1373 622.2 1380.8C647.5 1402.4 692.4 1432.7 718.6 1445.8L724.7 1448.9L725.3 1442.7C725.6 1439.3 727.1 1433.1 728.5 1429C732.8 1416.8 732.9 1417.6 726.9 1413.7C700.8 1397 663.8 1367.3 637.9 1342.2C630.9 1335.5 625 1330 624.6 1330C624.2 1330 623.7 1330.8 623.3 1331.7ZM1387.9 1333.7C1366.8 1356.4 1323.4 1392.1 1293.5 1411.6C1288.8 1414.6 1285 1417.5 1285 1417.9C1285 1418.4 1286.1 1421.6 1287.4 1425.1C1288.7 1428.6 1290.6 1435.2 1291.5 1439.7C1292.5 1444.3 1293.7 1448 1294.1 1448C1295.1 1448 1316.5 1436.1 1326.5 1430C1346.7 1417.7 1371.8 1399.8 1392.3 1383.1L1404.1 1373.5L1403.4 1366.5C1402.2 1353.8 1395 1330 1392.3 1330C1391.8 1330 1389.8 1331.7 1387.9 1333.7ZM852.5 1339C842.7 1342.3 828.9 1347.7 817.7 1352.5L813.9 1354.1L816.2 1357.3C821.9 1365.4 851.5 1396.7 871.7 1416.1C886.6 1430.5 905.1 1446.2 906.4 1445.6C907 1445.4 912.5 1443.3 918.5 1441C924.6 1438.6 929.7 1436.6 929.9 1436.4C930.1 1436.2 928.5 1433.9 926.3 1431.3C910.2 1412 885.9 1373.7 869.5 1342.2C867.4 1338.3 865.2 1335 864.6 1335.1C864 1335.1 858.6 1336.9 852.5 1339ZM1151.3 1336.2C1150.7 1336.9 1147.5 1342.9 1144 1349.5C1128.4 1379 1106 1413.8 1091.8 1430.2L1086.9 1436L1090.2 1437.4C1092 1438.2 1097.5 1440.5 1102.4 1442.4C1112.9 1446.6 1110.7 1447.4 1126 1433.9C1145.8 1416.5 1160.2 1402.5 1175.9 1385.5C1200.5 1358.8 1203.6 1355 1201.9 1353.9C1198.5 1351.8 1177.5 1343.3 1165.6 1339.3C1158.4 1336.9 1152.5 1335 1152.4 1335C1152.3 1335 1151.8 1335.6 1151.3 1336.2ZM797.4 1363.4C784.4 1371 770 1381 770.1 1382.4C770.2 1383.8 780.3 1392.4 798.7 1406.8C822.7 1425.5 844.6 1440.3 869.2 1454.5L881 1461.3L889.2 1456C893.8 1453 898.1 1450.1 898.7 1449.5C899.7 1448.7 898.1 1446.9 892.1 1441.8C869.6 1422.7 835 1387.8 814.6 1363.7C811.9 1360.6 809 1358 808.1 1358C807.2 1358 802.4 1360.4 797.4 1363.4ZM1193 1374.6C1176.7 1393.2 1145.1 1424.7 1128.3 1439.2L1117 1448.9L1124.4 1453.5C1128.5 1456 1132.4 1458.8 1133 1459.6C1134.9 1461.8 1136.5 1461.4 1144.3 1456.9C1174.8 1439.3 1205.4 1418 1233 1395.2C1248.2 1382.6 1247.5 1383.4 1246 1381.4C1242.4 1377.2 1212 1358 1208.9 1358C1208.1 1358.1 1201 1365.5 1193 1374.6ZM613.8 1382.5C612.9 1383.4 615.8 1398.6 618.3 1406.1C621.6 1415.6 626.6 1426.3 628.8 1428.3C634.5 1433.3 658 1448.1 676.5 1458.3C695.8 1468.9 727.9 1483.4 729.2 1482.2C729.6 1481.8 729 1479 728 1475.9C727 1472.9 725.7 1466.9 725.1 1462.6C724.6 1458.3 724 1454.7 723.8 1454.5C723.7 1454.4 720.8 1452.9 717.4 1451.2C692 1438.4 651.9 1411.9 624.9 1389.8C615.1 1381.9 614.7 1381.6 613.8 1382.5ZM1392.9 1389.6C1365.6 1411.8 1324.4 1439.1 1300.3 1451C1293.2 1454.5 1293.2 1454.5 1292.5 1460.8C1292.1 1464.3 1291 1470.3 1289.9 1474.1C1287.6 1482.4 1287.6 1482 1289.5 1482C1291.2 1482 1312.2 1472.9 1324.5 1466.8C1338.5 1459.9 1362.7 1445.8 1375.8 1437C1388 1428.8 1388.6 1428.2 1392.2 1421.5C1396.6 1413.1 1400.5 1401.7 1402.5 1391.2C1403.3 1387 1404 1383.2 1404 1382.7C1404 1381 1401.8 1382.4 1392.9 1389.6ZM758 1392.7C750.5 1400.5 743.5 1409 741.4 1413.2C740 1416 740 1416 746.9 1420.5C766.3 1432.8 803.8 1452.6 831 1464.7C847 1471.9 865.1 1479.2 865.5 1478.8C865.6 1478.6 868.2 1475.5 871.4 1471.8C877.2 1464.8 877.7 1464 875.9 1464C874.1 1464 854.2 1452.1 838 1441.5C815.3 1426.5 788.4 1406.3 771.9 1391.8C768.2 1388.6 765.1 1386 764.9 1386C764.7 1386 761.5 1389 758 1392.7ZM1246 1391.2C1223.3 1411.8 1174.8 1446.2 1148.3 1460.6C1144.3 1462.7 1141 1464.9 1141 1465.4C1141 1465.9 1142.7 1468.1 1144.8 1470.4C1146.8 1472.6 1149.2 1475.6 1150 1476.9C1151.6 1479.2 1151.6 1479.2 1165 1473.7C1202.3 1458.4 1233.3 1442.8 1266.3 1422.7C1271.6 1419.5 1276.2 1416.4 1276.5 1416C1277.7 1414 1260.8 1392.9 1254.2 1388.1C1251.5 1386.2 1251.5 1386.2 1246 1391.2ZM734.8 1425.6C732.4 1431.1 728.7 1448.7 729.4 1450.7C730.8 1454.2 783.2 1476.8 811 1485.9C826.9 1491.1 847.8 1496.8 854 1497.6L858.7 1498.2L860.8 1491.4C862 1487.6 862.6 1484.2 862.2 1483.8C861.8 1483.5 855.9 1480.9 849 1478.2C817.2 1465.5 780.2 1446.8 749.4 1427.9C743.2 1424.1 737.9 1421 737.6 1421C737.2 1421 736 1423.1 734.8 1425.6ZM1274 1424.1C1246.1 1442.5 1192.6 1469.3 1156.3 1483.1C1154.1 1483.9 1154.1 1484.1 1155.5 1488.1C1156.3 1490.4 1157 1493.5 1157 1495.1C1157 1498.7 1158.5 1498.8 1170.7 1496C1202 1488.7 1242.7 1473.7 1279.3 1456C1289.2 1451.2 1289 1451.7 1286.4 1439.2C1284.8 1431.3 1280.8 1420.9 1279.3 1421.1C1278.9 1421.1 1276.5 1422.5 1274 1424.1ZM612 1422.8C612 1423.9 622.2 1433.9 624.5 1435.3C625.4 1435.8 626 1435.7 626 1435.1C626 1432.7 624.5 1430.8 619.7 1427.2C613 1422.3 612 1421.7 612 1422.8ZM1397.8 1427.5C1392.5 1431.8 1390.3 1434.6 1391.5 1435.8C1391.8 1436.2 1394.8 1433.6 1398.2 1430.2C1401.6 1426.8 1404.2 1423.9 1403.9 1423.6C1403.6 1423.3 1400.9 1425.1 1397.8 1427.5ZM984 1434.6C969.9 1436.2 961.2 1437.4 953.1 1439.2C920.7 1446.1 895.9 1457.9 881 1473.7C864.6 1490.9 863.1 1508 876.4 1525.6C883.8 1535.4 893.2 1542.4 910.3 1550.5C960.5 1574.6 1038.3 1577.1 1093.7 1556.4C1111.8 1549.6 1125.7 1541.3 1136 1530.8C1153.9 1512.7 1154.2 1492.5 1136.8 1474.3C1119.2 1456 1087.6 1442.6 1048 1436.4C1038.1 1434.9 992.9 1433.6 984 1434.6ZM638 1442C638 1442.7 640.2 1446 642.9 1449.4C657.8 1468.1 682.2 1485.6 715.4 1501.5C728 1507.6 748.4 1516 750.5 1516C752 1516 750.4 1513.3 745.5 1507.5C742.5 1503.9 738.6 1498.5 736.9 1495.5C734.5 1491.3 733.1 1489.9 730.2 1488.9C720 1485.6 685.6 1469.5 671.3 1461.4C663.2 1456.8 646.7 1446.7 643.5 1444.5C639 1441.2 638 1440.8 638 1442ZM1375.5 1443.6C1363.5 1452.8 1318.9 1476.3 1296.8 1485C1286.1 1489.2 1282.8 1491 1281.8 1493C1280 1496.6 1270.7 1509.2 1268.1 1511.4C1266 1513.3 1265.2 1516 1266.9 1516C1268.9 1516 1289.5 1507.3 1303.7 1500.5C1324.2 1490.6 1335.3 1483.9 1349.5 1472.9C1360.2 1464.4 1379 1445.4 1379 1442.9C1379 1441.6 1377.8 1441.8 1375.5 1443.6ZM1281.5 1460.8C1265.4 1469.1 1234.9 1481.7 1213 1489.1C1195 1495.1 1165.9 1503 1161.4 1503C1158.6 1503 1157.6 1504.9 1156.7 1512.2C1156.1 1516.3 1156.3 1517 1157.8 1517C1158.7 1517 1167.5 1515.7 1177.2 1514C1204.1 1509.6 1228.7 1503.5 1254.5 1495C1280.9 1486.3 1279.2 1487.1 1281.9 1481.5C1285 1475.1 1288.6 1460.2 1287.4 1459.1C1286.9 1458.5 1284.4 1459.2 1281.5 1460.8ZM730.7 1466.7C732.8 1477.7 736 1485.2 739.3 1486.8C744.2 1489.2 767.2 1496.8 783 1501.4C805.8 1507.9 850.7 1517 860.1 1517C861.3 1517 860.4 1507.6 858.8 1504.7C858.3 1503.8 856.8 1503 855.5 1503C851.5 1503 823.7 1495.6 807.5 1490.2C787.9 1483.7 767.3 1475.5 747.6 1466.4C738.9 1462.3 731.2 1459 730.5 1459C729.5 1459 729.5 1460.6 730.7 1466.7ZM1268 1496.2C1241.6 1505.8 1197.5 1516.4 1166 1520.7C1153.6 1522.3 1152.7 1522.6 1151.4 1525.1C1150.7 1526.6 1148.9 1529.2 1147.4 1531C1143.8 1535.2 1145.1 1536 1156.1 1536C1181.5 1536 1211.3 1531.8 1242.9 1523.6C1251.1 1521.5 1252.9 1520.6 1256.8 1516.8C1262.9 1510.8 1274 1497.1 1274 1495.4C1274 1494.6 1273.9 1494 1273.8 1494.1C1273.6 1494.1 1271 1495.1 1268 1496.2ZM743 1495.5C743 1498 762.5 1519.8 766 1521.2C779.6 1526.6 813.6 1532.9 841 1535.1C853.5 1536.1 870.5 1535.8 871.7 1534.7C871.9 1534.5 870.2 1531.6 868 1528.3C864 1522.3 864 1522.3 857.3 1521.6C853.5 1521.2 845.6 1520 839.5 1518.9C833.5 1517.8 826.3 1516.5 823.5 1516C812.3 1513.9 796.1 1510 774.5 1504C768.8 1502.4 758.5 1499.2 752.6 1497.1C746.9 1495.1 743 1494.4 743 1495.5ZM732 1516.5C733.6 1518.4 778.6 1541 780.8 1541C782.8 1540.9 780.2 1538.5 769.3 1530.2C763.6 1525.8 760 1524.1 748 1520C732.3 1514.6 730 1514.1 732 1516.5ZM1271 1519.5C1264.1 1522 1257.8 1523.9 1257 1524C1256.1 1524 1253.4 1525.7 1250.8 1527.7C1248.3 1529.8 1243.1 1533.7 1239.4 1536.4C1235.1 1539.4 1233 1541.5 1233.9 1541.8C1235.4 1542.3 1283.3 1518.5 1285.1 1516.4C1286.9 1514.2 1284.8 1514.7 1271 1519.5ZM779.2 1531.2C780 1533.6 804.8 1548.6 810.5 1550.1C820.4 1552.8 838.5 1555 851 1554.9C868.8 1554.8 891.5 1552.8 891.5 1551.4C891.5 1550.8 888.6 1548 885 1545.3L878.4 1540.3L859.5 1540.2C834.5 1540.1 819.3 1538.3 790.2 1532C779.2 1529.6 778.7 1529.6 779.2 1531.2ZM1224.5 1532.6C1202.5 1537.8 1162.3 1541.8 1146.4 1540.4C1138.7 1539.7 1139.4 1539.4 1126.2 1550.1C1123.8 1552.1 1126.2 1552.7 1139.5 1553.9C1155.7 1555.3 1175.9 1555.3 1185.3 1553.9C1202.9 1551.4 1208.3 1549.9 1217.4 1544.8C1233.8 1535.7 1241.5 1529.8 1236.3 1530.1C1235.3 1530.2 1230 1531.3 1224.5 1532.6ZM887 1557.7C880.1 1558.5 865 1559.3 853.3 1559.3C841.6 1559.4 832.4 1559.8 832.8 1560.2C834.1 1561.4 846.6 1565.8 858.2 1569.1C872.5 1573.1 888.6 1574 903 1571.6C919.2 1569 926.6 1566 921.3 1564.4C920.3 1564.1 915.5 1562.1 910.5 1559.9C905.6 1557.8 901.1 1556 900.5 1556.1C900 1556.2 893.9 1556.9 887 1557.7ZM1109 1559.2C1105.4 1560.9 1100.7 1562.8 1098.6 1563.5C1096.4 1564.2 1094.5 1565.1 1094.3 1565.7C1092.9 1569.9 1139.4 1575.3 1148.5 1571.9C1149.6 1571.5 1154.1 1570.2 1158.5 1569.1C1168.5 1566.4 1184 1561 1184 1560.1C1184 1559.8 1175.1 1559.5 1164.3 1559.4C1147.5 1559.4 1131.9 1558.4 1118.5 1556.5C1116.5 1556.2 1113.3 1557.2 1109 1559.2ZM927.5 1570.9C921.1 1573.4 905.5 1577 900.6 1577C898.6 1577 897.9 1577.3 898.6 1578C900.8 1580.2 940.7 1585.9 968.2 1588C992.5 1589.8 1057.2 1589.1 1058.5 1587C1058.8 1586.6 1057.5 1585.1 1055.7 1583.7C1054 1582.4 1051.2 1580.1 1049.7 1578.6C1047 1576.1 1046.6 1576 1040.7 1576.9C1014.4 1580.8 969.4 1578 941.9 1570.7C933.5 1568.5 933.5 1568.5 927.5 1570.9ZM1072.5 1571.5C1067.6 1572.8 1062.2 1573.9 1060.5 1574C1058.9 1574.1 1056.6 1574.5 1055.5 1574.9C1053.8 1575.6 1054.4 1576.3 1059.9 1579.8C1069.5 1586.1 1070.6 1586.2 1089.8 1583.4C1121.6 1578.9 1123.9 1578.1 1110 1576.1C1105.9 1575.5 1098.3 1573.7 1093.2 1572C1088.1 1570.4 1083.4 1569.1 1082.7 1569.1C1082 1569.2 1077.5 1570.3 1072.5 1571.5Z" fill="black"/>
</g>
</g>
<defs>
<clipPath id="clip0_1_40">
<rect width="2048" height="2048" fill="white"/>
</clipPath>
<clipPath id="clip1_1_40">
<rect width="2048" height="2048" fill="white"/>
</clipPath>
<clipPath id="clip2_1_40">
<rect width="2048" height="2048" fill="white"/>
</clipPath>
</defs>
</svg>
