<svg id="e8s7bL9d5RZ1" xmlns="http://www.w3.org/2000/svg" xmlns:xlink="http://www.w3.org/1999/xlink" viewBox="0 0 2048 2048" shape-rendering="geometricPrecision" text-rendering="geometricPrecision"><g transform="translate(0 0.000031)" clip-path="url(#e8s7bL9d5RZ12)"><g clip-path="url(#e8s7bL9d5RZ5)"><path d="M0,1024v1024h2048v-2048.000031h-2048L0,1024Z" fill="#fff"/><clipPath id="e8s7bL9d5RZ5"><rect width="2048" height="2048" rx="0" ry="0" fill="#fff"/></clipPath></g><g clip-path="url(#e8s7bL9d5RZ10)"><g transform="matrix(1.235549 0 0 1.228913-241.202176-234.406905)"><path d="M0,1024v1024h2048v-2048.000031h-2048L0,1024ZM1598,478.2c10.6,40.9,40.8,76.6,79.5,94c13.9,6.2,32.7,11.8,39.9,11.8c4.9,0,2.3,1-7.7,3.1-38.1,7.8-70.6,29.1-91.6,60.3-11.8,17.4-21.2,41.5-23.6,60.6-.8,5.5-.8,5.5-3.1-6.1-6.7-33.2-23.4-62-47.8-82.6-19.4-16.3-39-26.2-62.1-31.2-5.5-1.3-11.1-2.5-12.5-2.8-1.8-.4.3-1.1,7-2.5c30-6.1,54.5-19.2,75.5-40.2c20-20,31.3-40.3,38.4-68.7c1.7-6.7,3.1-13.5,3.2-15.3s.7-.1,1.4,4.2c.8,3.9,2.3,10.9,3.5,15.4Zm-559.2-11.7c48.3,1.6,106.4,13,157.2,30.8c42,14.7,86.9,36.9,122.9,60.9c91,60.7,162.3,144.3,205.7,241.3C1531,814,1542,842,1542,844c0,.6-1.8,1-4.1,1-3.3,0-4.2-.4-4.6-2-2.2-8.2-12.7-25.3-24.9-40.5-9.2-11.4-24.4-26.5-24.4-24.3c0,.9,1.4,7.2,3,14c3.4,13.7,8,39.4,8,44.3c0,2.9-.3,3.2-2.4,2.8s-2.4-1.2-3-6.6c-2-17.6-13.2-64.4-15.9-65.8-.6-.4-4.6-3.4-8.7-6.6-11.1-8.7-23.2-17.1-35-24.5-12.7-7.9-30.4-17.8-31.9-17.8-1.4,0-1.4,1,.4,10.1c4.4,23.3,7.3,50.4,8.4,78.3.8,21.4.8,21.9,3.2,23.8s2.4,1.9-7.1,1.2c-8.7-.6-10.6-1.2-23-6.7-7.4-3.3-19.8-8.4-27.5-11.4-16.6-6.5-54.6-19.3-57.3-19.3-1.7,0-1.9,1.1-2.1,16.7-.2,9.3-.6,18.5-.9,20.6-.7,3.7-.7,3.7-3,2.1-1.9-1.3-2.2-2.2-1.8-5.7.3-2.3.8-11.3,1.1-19.9l.7-15.7-8.4-2.5c-22.3-6.7-61.6-15.3-96.8-21.1-11.8-1.9-22.7-3.7-24.2-4-2.8-.5-2.8-.5-2.9,6.3-.1,3.7-.4,15.5-.8,26.2-.5,17.8-.8,19.5-2.4,19.8-1.8.4-1.8-.8-1.1-26.2.7-26.5.7-26.5-1.7-27-14.2-3.1-84.4-8.1-121.9-8.8l-17.5-.3-.3,23.7c-.2,23.6-.2,23.6,2.5,24.2c1.6.3,14.7,2.3,29.3,4.5c14.6,2.3,34.6,5.4,44.5,7.1c9.9,1.6,18.4,3,18.9,3s-1.1,1.4-3.5,3.1-5.4,4.3-6.6,5.7c-2.2,2.6-2.2,2.6-6,.4-7.1-4.3-14-7.2-21.8-9.2-7.4-1.9-11.1-2-67.5-2-57.3,0-60.4-.1-79.6-2.5-24.6-3-54.3-6.5-55.5-6.5-.5,0-.9,2.7-.9,6c0,4.4-.4,6-1.4,6-.9,0-1.6-1.9-2-6.3l-.7-6.3-17.7-1.7c-39.8-4-106.8-9.7-113.2-9.7-1.3,0-1.5,2.3-1.2,15.5.3,15.5.3,15.5-2.3,15.5-2.5,0-2.5,0-2.5-15c0-11.8-.3-15.2-1.4-15.6-3.2-1.2-60.4,19.4-89.7,32.4-12.7,5.6-14.1,6-23.5,6.6l-9.9.7l4.7-2.6c3-1.6,4.9-3.4,5.2-4.8.3-1.2.7-10.1.9-19.9.4-17.3.4-17.6-1.7-18.2-2.8-.7-72.6-.8-72.6,0c0,.3-1.5,8.1-3.4,17.2-1.9,9.2-3.9,20.3-4.6,24.7-1.8,13.1-1.8,13.1-4.5,13.1-1.4,0-2.5-.2-2.5-.4c0-3.4,6-36.7,8.4-47.2.9-3.6,1.6-6.8,1.6-7.3c0-.4-2-.7-4.4-.7-4.1,0-4.8.4-10.2,6.2-13.2,14.3-27.4,35.6-31.7,47.4-2.5,6.9-2.5,6.9-7.1,7.4-2.5.3-4.6.4-4.6.3c0-1.3,13.4-35.3,18.1-46.2c3.3-7.4,5.8-13.6,5.6-13.7-.4-.5-37.2,1.6-55.2,3.1-97,8.2-157.8,26.3-169.9,50.7-6.4,12.8-1.9,25.7,14.3,41.8c16.5,16.3,37.9,30.2,76.4,49.6C384.8,946,385,946.1,385,949.3c0,3.7,2.5,18.3,3.6,21.1.9,2.3,2.2,2.7-15.1-5-65.8-29.4-108.4-58.3-126.2-85.5-16.3-25-10.9-48.8,15.2-66.8c26.9-18.7,74.2-31.9,141.5-39.5c28.3-3.2,75.1-6.6,92.4-6.6c4.4,0,9.1-.3,10.3-.6c1.5-.4,4.5-4.7,9.7-13.7c27.8-48.4,55.7-84.7,95.3-123.9c78-77.3,174.2-129.2,280.3-151.3c39.4-8.2,88.9-13,121.5-11.9c5,.2,16.3.6,25.3.9ZM1732.2,713c7.3,18.4,23.3,33.2,40.6,37.2c2.8.7,5.2,1.5,5.2,1.8s-3.3,1.6-7.2,2.8c-19.6,6.1-36.5,24.2-40.9,43.7l-1.2,5.6-2.2-7.3c-5.3-18.2-16.6-31.4-33.6-39.2-4.1-1.8-8.9-3.7-10.6-4.1-4.3-.9-4.2-2.1.3-2.8c1.9-.3,7.4-2.5,12.1-4.7c15.4-7.5,28.1-23.1,32.4-40c1.3-5.2,1.3-5.2,2.2-1.9.4,1.9,1.8,5.9,2.9,8.9ZM1072.1,843.1c13.1,6.3,22.4,18.3,25,32.3.6,3.6.9,14.1.6,26.5-.3,18.4-.6,21.2-2.6,26-6.5,15.8-19.5,25.9-36.2,28.1-4,.5-21.8,1-39.3,1-28.3,0-32.2.2-33.8,1.7-1.7,1.5-1.8,3.8-1.8,30.4c0,24.8-.2,29-1.6,30.3-1.3,1.4-5.7,1.6-32.4,1.6s-31.1-.2-32.4-1.6c-1.4-1.4-1.6-10.9-1.6-89.9c0-83.1.1-88.5,1.8-89.4c1.1-.7,25.5-1,74.2-.8l72.5.2l7.6,3.6Zm101.4-1c80.7,3.4,84.6,3.6,91.7,6.2c14.8,5.4,24.7,16.6,28.4,32.3c2.2,9.4.5,43.3-2.7,52.6-4.8,14.4-16.8,25.3-31.9,28.8-5.4,1.3-18.3,1.2-63.1-.7-15.7-.6-15.7-.6-17.2,1.8-1.2,1.9-1.8,8.4-2.8,30.3-1,21.1-1.6,28.2-2.7,29.2-1.6,1.7-6.6,1.7-38.2.4-14.7-.6-24.4-1.5-25.9-2.2-2.3-1.3-2.3-1.4-1.7-12.3.4-6,1.3-27.4,2.1-47.5c4.3-108.3,4.8-117.4,6.5-119.5c1.6-1.9-3.2-2,57.5.6Zm-276.3.6c1.2,1.5,1.7,8,2.7,34.8c1.4,40,2.7,74.7,4.1,112.3.6,15.5.9,29.1.5,30.2-.3,1-1.4,2.1-2.3,2.4s-14.8,1-30.9,1.6c-20.9.9-29.7.9-31.2.1-2.7-1.5-2.7-2.1-4.6-56.6-.9-25.9-2.2-63.7-3-84-1.3-35.1-1.3-37.1.4-38.8c1.4-1.5,4.5-1.9,19.7-2.6c32.9-1.5,42.9-1.3,44.6.6Zm-82.4,2.1c1.4,1.4,2,4.1,2.5,11.3.4,5.2,2.2,31,4.2,57.4c8.1,111.3,8,108.5,6.3,110.1-1.2,1.3-12,2.3-54.4,5.5-29.1,2.1-58.6,4.2-65.6,4.5-12.7.7-12.7.7-13.7-1.7-.6-1.3-1.9-15.5-3.1-31.4-5.8-80.5-5.3-77-9.4-78.1-2.8-.7-6.1.9-7.6,3.6-.7,1.3-.7,5.9,0,14.2.5,6.8,1.9,25.1,3,40.8s2.5,33.7,3,40c.9,10.4.8,11.6-.8,13.2-1.4,1.5-6.1,2.1-27.7,3.8-32.4,2.5-34.8,2.5-36.7.2-1.1-1.2-1.9-6.2-2.7-18.2-2.3-31.8-6.1-83.8-8.6-117.8-1.5-18.8-2.5-35.9-2.3-38c.2-2.8.9-4,2.8-4.8c1.4-.6,29.1-3,61.5-5.3c32.5-2.3,60.8-4.3,63-4.6c2.6-.4,4.7-.1,5.9.8c1.9,1.4,2.1,2.5,6.6,65.2c2.8,39.5,3.4,44.6,5.6,46.2c2.6,1.9,5.7,1.6,8.3-.8c2.1-2,2.2-2.7,1.7-8.8-.4-3.6-2.2-27.8-4.1-53.6-3.3-45.5-3.3-47.1-1.6-48.9c1.6-1.5,4.8-2,19.2-3.2c32-2.5,39.4-3.1,41.2-3.3.9,0,2.5.7,3.5,1.7Zm557.7,8.6c121.5,10.8,119.8,10.6,121.2,12.4c1.6,2.1,1.6-.2-.7,26.2-1.6,18.3-2.3,22.8-3.7,24.2-1.7,1.6-4.1,1.5-45.8-2.2-63.2-5.7-64.2-5.7-66-3.4-2.2,2.9-1.9,7.1.8,8.8c1.5,1,15.5,2.6,48.2,5.5c53.1,4.7,52.1,4.6,53,6.8c1,2.9-2.5,41.5-4.1,44-1.1,1.7-2.4,2.3-5.2,2.3-3.7,0-40.6-3.1-78.1-6.6-17.1-1.6-17.4-1.6-19.3.4-2.4,2.4-2.7,6.8-.5,8.9c1.7,1.7,6.6,2.2,64.7,7.3c19.5,1.6,37.4,3.3,39.6,3.6c7.5.9,7.5.8,5.3,26.4-1.1,12.4-2.4,23.6-3,24.9-1,2.3-1.1,2.4-11.2,1.8-5.6-.3-30.7-2.4-55.7-4.6s-59-5.2-75.5-6.6c-31.5-2.7-36.9-3.5-37.9-6-.3-.9,1-19.2,2.9-40.8c3.8-42.8,8.9-100.7,10.7-121.2.8-9.3,1.5-13.5,2.7-14.9c1.9-2.2-.7-2.3,57.6,2.8Zm-791.4,9.7c.6,1,2.3,12.8,5,35.6c1.4,11.2,1,12.7-3.9,13.7-2.6.6-84.2,10.8-97.1,12.2-7,.8-10.1,2.8-10.1,6.7c0,1.3.6,3.2,1.4,4.2c1.8,2.5,3.5,2.4,38.4-2c32.6-4.1,41.4-4.3,49.7-1.5c11.7,4,22.2,13.4,26.7,23.9c3.8,8.9,8,41.7,6.7,52.5-1.8,14.6-11.1,27.6-24.5,34.2-7.2,3.6-7.2,3.6-74.5,12-37.1,4.6-68.8,8.4-70.6,8.4-1.7,0-3.8-.6-4.5-1.4-.9-.9-2.4-9.1-4.1-23.2-1.5-12.1-2.7-22.2-2.7-22.6c0-2.9,7-4.1,56.4-10.3c28.4-3.5,52.5-6.9,53.6-7.5c2.7-1.5,2.7-7.1-.1-9.6-2-1.8-2.8-1.7-37,2.5-26,3.2-36.6,4.2-41.1,3.7-17.1-2-30.5-12.8-36.9-29.7-2.8-7.3-6.2-35.3-5.6-46.2.4-7.6,1-9.9,4.1-16.2c3.9-7.8,10.5-15.2,17.1-19c9-5.2,9.1-5.2,94-15.5c23.1-2.8,44.5-5.5,47.5-6c6.2-.9,11.1-.5,12.1,1.1Zm950.9,6.4c10.9,1.3,96.4,12.5,107.6,14c7.9,1.1,7.8.6,3.9,30.9-1.9,15.5-3.9,27.4-4.6,28.3-1.5,1.7-9.2,1.4-23.2-.9-6.2-1-7-.9-8.7.8-2.2,2.2-3,7.6-11,70.9-2.9,22.5-5.7,42.1-6.4,43.5-.7,1.5-2.1,2.6-3.7,2.8-5.1.6-58.2-6.8-60.7-8.4-2.1-1.4-2.3-2.1-1.8-5.2.3-2.1,2.8-21.3,5.6-42.7c2.8-21.5,5.7-44,6.5-50c2.1-15.8,2-19.1-.7-20.9-1.3-.8-7.9-2.2-14.8-3.1s-13.1-2.1-13.7-2.7c-2.1-1.7-1.9-4.2,4.3-50.7.8-6.1,3-9,6.5-8.5c1.3.2,8,1,14.9,1.9Zm131.9,96.1c89,38.8,139.6,77.6,145,111.1c2.7,17-5.6,32.9-23.3,45.2-29.4,20.3-81.6,33.9-159.3,41.5-13.2,1.3-15.9,1.3-19.9.1-6.3-1.9-10.4-5.9-10.4-10.3c0-8.3,3.1-9.7,27.2-12.2c93-9.9,146-28.1,154.3-53.1c2.3-6.8,1.5-12.5-3.1-21.8-12-24.3-61.3-55.9-134.4-86.3-8-3.3-14.6-6.1-14.8-6.3-.1-.1.1-1.6.4-3.3.6-3.1.6-3.1,7.3-3c7.1.1,13.1-1.4,17.1-4.3c1.4-1,2.7-1.9,2.9-1.9s5.1,2.1,11,4.6Zm-653,38.6c.1,12.7.4,23.4.6,23.8.3.4,12.3,1.1,26.7,1.5c14.5.4,31.7,1.3,38.3,2c12,1.3,12,1.3-16.5,1.3-15.7,0-29.7.3-31.3.7-1.5.4-3.3.3-4-.2-.6-.5-5.8-.9-11.4-.7-9.5.1-12-.4-9.2-2.1c2.3-1.5,2.8-6.4,2.9-27.3.1-20.3.3-21.8,2-21.9c1.7-.2,1.8,1.3,1.9,22.9Zm259.2-13.1c-.9,2.7-.8,3.1,1.7,4.1c1.5.7,2.8,1.3,3,1.4s.5,1.3.7,2.7c.5,2.5.4,2.5-3.1,1.5-2-.5-3.7-.8-3.9-.6s-2.2,8.4-4.4,18.4c-2.2,9.9-4.3,18.8-4.7,19.7-.4,1.1-1.7,1.7-3.6,1.7-2.5,0-2.9-.3-2.3-1.8.5-1.3,6.8-27.5,9-37.9.6-2.5,2.5-1.9-23.5-8.3-9.1-2.3-16.9-4.6-17.5-5.2-2.6-2.7,25.1,1.2,40.6,5.8c1.1.3,1.9-.7,2.8-3.6c1.5-5.1,5.4-7.2,5.9-3.3.2,1.3-.1,3.8-.7,5.4ZM1018,1058.7c0,10.9.3,25.5.7,32.5l.6,12.8h-27.3v-12.9c0-7.2-.4-13.2-.8-13.5-.5-.3-8.6-.2-18,.1l-17.2.6v26.4l-12.9.2-13,.2-.3-9.3c-.2-5.1-.5-19.8-.6-32.6l-.3-23.2h26.1v6.2c0,3.5.3,9.3.7,13.1l.6,6.7l17.4-.2l17.5-.3-.1-13.3v-13.2h26.9v19.7Zm71.3-18.7h19.7v15h-48v10.7l14.3.6c7.8.4,17,.7,20.3.7c6.2,0,6.2,0,5.8,3.2-.1,1.8-.3,4.3-.3,5.5-.1,2.3-.1,2.3-20.1,2.3h-20v10.8l25.5.7l25.5.7v14.8h-11.2c-6.2,0-23.8-.3-39-.7l-27.8-.6v-13.6c0-7.5.3-22.1.7-32.5l.6-18.9l17.1.6c9.4.4,26,.7,36.9.7Zm92.1,3c17.4,1.7,27.5,6,31.3,13.3c2.3,4.4,2.3,15.2,0,19.5-1,1.8-3.8,4.7-6.3,6.5-2.4,1.7-4.4,3.4-4.4,3.7c0,.4,1.1,1.2,2.4,1.8c3.5,1.6,5.4,5,6.7,11.8.5,3.2,1.2,6.6,1.5,7.5.4,1.4-1,1.5-11.8,1.1-6.8-.2-12.6-.7-12.9-1.1-.4-.3-1.4-3.3-2.4-6.5-2.1-7.4-5.9-11.3-11.8-12-2.3-.3-8.1-.8-12.8-1.1-10.1-.7-9.9-1-9.9,11.4v7.4l-13.1-.5c-7.1-.3-13.2-.7-13.3-.9-.2-.2.2-14.4,1-31.4.7-17.1,1.3-31.5,1.4-32c0-1.2,37.7-.1,54.4,1.5Zm-279.7,1.4c12.1,3.8,18,15.3,13.9,26.9-1.8,5.1-4.1,7.4-9.9,10.4-6.6,3.3-17.2,5.2-33,5.9-19.8.8-18.1-.3-17.3,11l.7,9.4h-13.1c-9.6,0-13.2-.3-13.5-1.3-.5-1.7-2.4-62.1-1.9-62.6.8-.9,32.2-1.9,49.9-1.6c14.3.2,20.3.7,24.2,1.9Zm364.8,2.6c17.6,1.2,33,2.3,34.3,2.6c2,.4,2.2,1,2.2,6.7c0,3.4-.4,6.7-.8,7.2-.5.8-7.9.6-24-.5-12.9-.8-23.6-1.3-23.8-1.1s-.4,2.8-.4,5.7c0,5.2,0,5.2,5.3,5.8c2.8.3,9.9.8,15.7,1.1s12.5.8,14.9,1.1c4.3.6,4.3.6,3.9,5.5-.3,2.7-.7,5.2-1,5.4-.4.4-7,.1-35.8-1.8-3.4-.2-3.4-.1-4.3,4.7-.4,2.8-.4,5.3.1,5.8s7.6,1.3,15.8,1.9c8.2.5,19.4,1.3,24.8,1.7l10,.7-.3,7c-.1,3.8-.4,7.2-.6,7.5-.2.4-78-4.5-78-4.9c0-.5,4.4-63.7,4.4-63.9.2-.5,6.4-.2,37.6,1.8Zm-471,.5c7.7,2.1,11.9,4.7,15.5,10c4.5,6.6,4.2,7.5-3.2,7.6-3.5,0-9.4.4-13.3.8-6.1.7-7.4.6-10.3-1.1-6.4-3.9-18.2-1.4-19,4-.3,2.1,0,2.2,8.5,2.3c4.8,0,10.2.2,11.8.4c1.7.2,6.2.6,10,.9c8.3.8,16.6,4.3,19.1,8.1c3.4,5.2,1.3,15.9-4.4,21.8-5.6,5.9-14.3,9.1-28.7,10.7-17.2,1.8-31.2-1.5-37.6-8.7-3.3-3.9-5.5-8-4.7-8.8.3-.3,6.3-1.1,13.3-1.7c12.3-1,12.9-.9,17.2,1.2c3.3,1.6,5.6,2.1,8.4,1.7c6.6-.9,11.7-5.3,9-8-.6-.6-7.9-1.3-18.8-1.7-24.6-.9-30.2-3.5-31.1-14.4-.4-4.5,0-6.2,2.4-10.6c2.8-5.1,8.1-9.7,14.1-12.1c9.4-3.9,31.3-5.1,41.8-2.4Zm24.5,4c0,.9-.9,1.5-2.4,1.5-1.3,0-2.9-.7-3.6-1.5-1.1-1.3-.7-1.5,2.4-1.5c2.5,0,3.6.4,3.6,1.5Zm402,3.6c0,2.3-1.6,2.5-2.4.3-1-2.5-.7-3.4.9-2.8.8.4,1.5,1.5,1.5,2.5Zm-619.6,4.5c3.1,1.2,1.5,3.1-6.6,8.4-13.5,8.8-31.8,23-31.8,24.7c0,3.7,20.5,50.2,23.4,53.1c1.1,1.1,3.5-.3,14.4-8.5c14.9-11.2,28.2-19.7,46-29.4c6.8-3.7,12.6-6.9,12.8-7.2.2-.2-2.5-9.1-6-19.6-6.5-19.2-6.5-19.2-4-18.9c2.4.3,3.1,1.7,8.6,17.3c3.3,9.3,6.3,17.3,6.7,17.7.3.4,7.6-2.3,16.1-6.1c20.9-9.2,44.9-18.4,46.6-17.7c2,.8,1.7,4.3-.3,5.1-1,.4-5.9,2.2-10.9,4-9.3,3.4-30.7,12.3-42.6,17.7-6.6,3-6.6,3-5.6,6.2c4.4,13.3,21.2,52.3,33.1,76.6c8.4,17,23.7,45.4,25.5,47.2.5.5,6.6-1.6,14.3-5c16.2-7.2,36.2-14.7,52.4-19.8c6.6-2,12.1-3.8,12.3-3.9.2-.2-5.1-16.4-11.7-36.2-6.7-19.7-12.7-37.9-13.5-40.6-1.4-4.7-1.4-4.7,1.5-4.7c1.6,0,3.1.6,3.3,1.2.3.7,4.5,13.7,9.5,28.8c13.1,39.6,16.5,48.4,18.4,48.8.9.2,7.9-1.2,15.4-3.2c16.5-4.2,38.6-8.6,58.1-11.7c16.6-2.6,15.4-.8,12.2-18.5-6.2-33.5-11.8-71-10.7-72c1.3-1.4,3.7.7,3.7,3.2c0,4.8,13.4,83.1,14.4,84.1.1.2,6.1-.4,13.2-1.2c22.1-2.5,39.1-3.7,62.4-4.4l22.5-.6.3-31.8c.2-31.7.2-31.7,2.7-31.7s2.5,0,2.7,31.7l.3,31.8l22.6.7c23.1.6,39.5,1.8,62.3,4.4c9.1,1,13.1,1.1,13.6.4.6-.9,5.5-28.4,11.1-61.3.7-4.4,1.6-6.7,2.4-6.7s1.6.4,2,.9c.3.5-1.8,14.4-4.6,30.8s-5.3,31.6-5.6,33.9l-.5,4.1l11.3,1.7c18.2,2.7,41,7.3,60.2,12l17.8,4.3l1.3-3.1c.8-1.7,7.1-20.3,14.2-41.4c12.8-38.2,12.8-38.2,15.6-38.2c1.5,0,2.8.1,2.8.3s-.6,2.3-1.4,4.8c-.8,2.4-3.9,12-7,21.4-3,9.3-8.6,26.1-12.5,37.2-8,23.1-8.4,20.7,3.9,24.3c15.1,4.4,39,13.4,57.8,21.7c5.6,2.5,10.4,4.4,10.6,4.2.8-.9,10.8-19.3,18.9-34.9c16.8-32.2,42.1-91,40.1-93-1.2-1.1-33.3-15.2-41.1-18-5.3-1.9-6.3-2.6-6.3-4.6c0-1.3.4-2.4.8-2.4c2.5,0,16.6,5.7,41,16.5c4.6,2,8.5,3.5,8.6,3.3.3-.5,5.5-15.4,9.4-27.1c3.5-10.3,3.8-10.7,6.5-10.7c3.3,0,3.9-2.5-4.8,22.8l-6.3,18.3l7.8,3.9c16.4,8.2,41.7,24.4,57.4,36.6c3.7,3,7.2,5.4,7.7,5.4s3.2-4.8,6-10.8c4.6-9.8,18.9-42.8,18.9-43.7c0-.7-14.5-12.1-24-18.9-5.2-3.7-9.7-7.3-9.9-7.8-.2-.7,1.1-.9,3.8-.5c4.2.5,10.9,4.8,24.4,15.4c3.7,3,7.1,5.2,7.6,4.8.5-.3,2.2-3.8,3.6-7.8c3.2-8.3,4.5-10,6.9-9.1c2,.8,2,.5-2.5,12.9l-3.2,9.1l10.2,9.9c12,11.6,22.2,23.4,30.6,35.3c5.9,8.4,8.5,10.8,8.5,7.9c0-.9,1.5-5.1,3.4-9.5c3.7-8.7,15.7-43.5,15.8-46.1.1-.9-1.3-4-3.1-7-3.2-5.3-3.2-5.3-.4-4.5c1.5.4,4.5.8,6.5.9c2.1.1,4,.4,4.4.7.3.3,0,2.4-.6,4.5-1.1,3.6-1,4.4,2,10.2c4.7,9.5,10.8,28.4,12.5,39.6c2.2,13.7,2.5,14.9,3.4,13.9s6.3-34.4,8.1-49.4c2-17.1,1.6-16,5.3-15.3c1.8.3,3.5.8,3.8,1.2c1.2,1.3-2.9,32.3-7.3,54.6-22.8,116-76.3,216-159.8,298.4-60.2,59.4-136.7,106.2-218,133.2-134.4,44.6-280.6,37-410-21.3-89.6-40.4-167.3-103.9-225.8-184.6-52.9-72.8-87.6-157.8-100.7-246.5-1.3-8.9-2.7-19.4-3.1-23.3-.6-6.9-.6-7.1,1.7-7.7c5.2-1.4,5.7-1.1,6.4,5.5c1.2,12.1,4.7,34.7,7.1,46.6.9,4.7,2.4,5,2.4.5c0-8.9,6.8-31.2,14.6-47.7c1.8-3.8,3-7.5,2.7-8.3-.4-1,.7-1.3,4.2-1.3c4.5,0,4.7.1,3.2,1.8-1.4,1.6-1.4,2.3.3,8.8c4,15,18.5,53.4,20.1,53.4.3,0,2.3-2.6,4.4-5.8c8.2-12.3,16.4-22.2,29.4-35.5l13.6-13.8-2.9-8.1c-2.3-6.6-2.6-8.2-1.5-8.9c2.9-1.8,4-.5,6.5,7.3c1,3.2,2.2,5.8,2.7,5.8.4,0,4.6-3,9.3-6.6c9.1-7.1,28.3-20.4,29.5-20.4.4,0,1.4.3,2.3.6ZM968,475.1c-6.3.5-18.9,1.8-28,2.9-16.5,2-16.5,2-20.7,6.4-5.4,5.6-5.5,7-.5,6.2c9.1-1.5,38.3-3.6,55.7-4.1c10.5-.3,21.8-.8,25.3-1.1l6.2-.6v-10.8l-13.2.1c-7.3.1-18.5.6-24.8,1Zm43,4.3c0,5.3,0,5.3,3.8,6c2,.3,9.6.6,16.7.6c15.4,0,51.2,2.4,66.8,4.5c5,.7,4.8-1-.7-6.4-4.3-4.2-4.3-4.2-20.7-6.1-21.6-2.4-43.4-4-55.8-4h-10.1v5.4ZM892.5,486c-30.1,6.5-70,18.2-69.2,20.3.5,1.6.1,1.6,23.7-3.6c11.3-2.5,28.4-5.8,38-7.2s18.4-2.8,19.5-3.1c1.6-.3,6.9-6.5,8.3-9.7.5-1.1-.7-.9-20.3,3.3Zm211.5-3.3c.1.5,1.8,2.7,3.9,5.1c3.7,4.3,3.7,4.3,19.7,6.7c17.6,2.7,36.9,6.4,51.4,10c16.1,3.9,15.2,3.8,14.8,1.9-.3-1.7-3.1-2.8-21.8-8.4-16.3-4.9-31.9-8.8-49.8-12.5-19.6-4-18.2-3.7-18.2-2.8Zm-118,8c-21.6.6-63.7,3.9-74.5,5.9-3.3.6-7.5,6.7-14,20.2-3.2,6.8-11.5,29.3-11.5,31.4c0,1.1,1.8,1,27-1.6c14-1.5,44.5-3.2,75.3-4.2l17.7-.6v-50.6l-3.1-.6c-1.7-.3-4.1-.5-5.3-.4-1.1.1-6.4.3-11.6.5Zm25.6,0c-.3.4-.6,12-.6,25.8v25.2l24.3.7c26.9.8,55.1,2.7,78.9,5.2c8.7,1,16.1,1.4,16.5,1c2.1-2.1-14.9-42.6-20.9-49.8-2.3-2.6-2.7-2.7-24.8-4.7-12.4-1.1-29.2-2.3-37.5-2.6-8.2-.3-19.6-.8-25.1-1-5.6-.2-10.5-.1-10.8.2Zm-116.6,8c-1.4.2-8.1,1.3-15,2.4-18.4,3-52.1,10.5-65.2,14.5-2.1.6-15.2,14-22.3,22.9-8.7,10.9-22.3,32-21.3,33.1.3.2,7.4-1.3,15.9-3.5c23.7-6,53.9-11.9,82.9-16.2c4.7-.7,9-1.7,9.6-2.3s2.8-6.1,4.8-12.3c3.8-12,10.1-26.9,14.1-33.8c3.5-5.9,3.5-6-3.5-4.8Zm221-.3c0,.2,2,4.1,4.4,8.7c5.2,9.8,9.8,21.1,13.3,32.4c1.3,4.4,2.7,8.6,3.2,9.4.5,1,7.2,2.5,21.7,4.8c22.3,3.5,45.1,8.1,70.9,14.3c8.8,2.2,16.1,3.7,16.4,3.4c1-1-12.6-22.5-20.3-31.9-8.3-10.2-19.1-21.7-21.6-23-7-3.6-55.1-14.2-79.3-17.5-8.9-1.1-8.7-1.1-8.7-.6ZM809.5,511c-.3.5-.1,1,.4,1c.6,0,1.1-.5,1.1-1c0-.6-.2-1-.4-1-.3,0-.8.4-1.1,1ZM790,523.2c-31.9,11.1-46.4,17.4-63.9,27.7-10.7,6.3-14.2,9.1-24.6,19.5-11.1,11.1-29.5,33.9-29.5,36.5c0,1.3,2.2,1.5,3.6.2c4.1-3.7,62.7-25.6,83.1-31.1c3.5-.9,4.6-1.8,6.1-4.8c6-12.4,18.5-30.6,29.6-43c5.2-5.8,6.7-8.4,4.9-8.1-.5.1-4.6,1.5-9.3,3.1Zm427-2.5c0,.5,2.9,4,6.3,8c8.2,9.4,16.5,21,24.3,33.9c3.4,5.7,6.4,10.8,6.6,11.2.2.5,6.6,2.8,14.3,5.2c18.4,5.7,45.7,15.8,62.5,23.1c7.4,3.3,13.8,5.8,14.3,5.6c1-.3-8.2-13.3-16.8-23.8-10.1-12-25.2-25.9-34.6-31.6-15.9-9.8-37.3-19.3-63.3-28.2-12.3-4.3-13.6-4.6-13.6-3.4ZM965.4,548.1c-29.6,1.2-79.9,5.9-81.5,7.6-1.1,1.2-7.3,29.3-6.6,30c.4.3,9.5-.4,20.4-1.6c32.9-3.5,75.9-6.1,101.1-6.1h7.2v-31l-11.2.2c-6.2,0-19.5.5-29.4.9Zm45.6,14.1v15.5l22.3.7c29.2.9,49.8,2.2,74.2,4.7c11,1.1,22.9,2.3,26.4,2.6l6.4.6-.7-4.4c-1.3-8.4-5.8-25.9-6.8-26.5-3.3-2.1-63.8-6.9-100-8l-21.8-.6v15.4Zm-141-5.1c-20.1,3.2-27.4,4.4-43,7.5-14.7,3-42,9.3-57,13.4-3.6,1-4,1.5-7.8,10.3-6.4,14.6-9.2,22-8.7,22.5.3.3,10.7-2,23.2-5.1c30.1-7.5,69.3-15.1,88.3-17.3c3.3-.4,6.3-1.1,6.7-1.7.5-.8,4.4-18.8,6-27.5.6-3.6,1-3.5-7.7-2.1Zm269-.6c0,.4.7,3.7,1.5,7.4.9,3.6,2.3,10.4,3.3,15.1l1.7,8.4l14.8,2.2c26.9,4,59.4,10.8,90.5,18.8c7.2,1.9,13.2,3,13.2,2.4c0-1.4-7.7-20.5-10.8-26.7l-2.7-5.4-15-3.8c-21.3-5.4-49.1-11.3-70-14.8-25.5-4.2-26.5-4.4-26.5-3.6ZM680.8,580.8c-2.5,2-8.4,6.5-13,9.9-17.3,12.8-60.2,51.3-57.9,52.1.6.2,5.4-2.4,10.6-5.7c5.2-3.4,16.3-10,24.7-14.6c12.2-6.8,15.8-9.3,17.7-12.2c3.9-6.3,14.2-20.5,18.6-25.8c7.2-8.7,7-9.8-.7-3.7Zm651.8.4c5.2,5.5,11.6,14,18.8,25c3.2,4.9,6.1,8.8,6.5,8.8c1.4,0,25.3,13.4,37,20.8c16.5,10.3,16.4,9-.9-7.2-14-13.2-35.6-31.4-50.9-43-12.4-9.4-17.2-11.4-10.5-4.4Zm-594.1,6.7c-24.8,8.5-41.7,15.1-58,22.6-4.4,2-9.7,4.3-11.7,5.2-3,1.3-4.7,3.2-8.2,9.2-6.7,11.4-12.8,25.1-11.2,25.1.8,0,5.6-2,10.7-4.4c19.2-9,63.8-25.4,83.1-30.7c3.2-.8,3.9-1.5,4.8-4.9.6-2.2,3.1-8.8,5.6-14.7c2.5-6,4.8-11.4,5.1-12.1.9-2.1-2.6-1.3-20.2,4.7Zm520.4-3.7c.5,1.3,2.2,5.2,3.8,8.8s4,9.4,5.3,13s2.8,7,3.4,7.6c.6.7,6,2.6,12,4.4c22.1,6.5,59.7,20.7,77.5,29.4c6.7,3.3,7.1,3.3,7.1,1.4c0-1.2-3.4-8.7-7.6-16.7l-7.6-14.6-8.6-3.9c-28.2-12.7-78.8-31.6-84.4-31.6-1.4,0-1.6.5-.9,2.2ZM968.8,584c-34.4,1.5-90.9,6.7-92.8,8.6-.9,1-1.2,2.5-3.5,18.9-2.9,21.5-3.3,26.6-1.8,27.2.8.3,5.3.1,10.1-.6c30-3.9,72.4-7,94.8-7.1c8.3,0,18.5-.3,22.8-.6l7.6-.7-.2-23.1-.3-23.1-9-.1c-4.9-.1-17.4.2-27.7.6Zm42.2,22.3v23.4l7.7.7c4.2.3,14.4.6,22.7.6c21.4,0,55.9,2.4,87.9,6.2c9.8,1.1,18,1.9,18.2,1.7.5-.6-2.3-25-4.4-37.4l-1.6-10-6.5-.7c-3.6-.3-13.2-1.3-21.5-2.2-20.7-2.1-55.9-4.4-81.2-5.1l-21.3-.6v23.4ZM842,597c-25.6,4.4-48.5,9.2-71,15.1-8.5,2.3-16.5,4.3-17.7,4.6-1.6.4-2.8,2-4.2,5.7-2.7,7.3-5.9,19.3-8.6,31.8-2.1,9.7-2.1,10.8-.6,10.8.9,0,12.4-2.6,25.6-5.9c13.2-3.2,28.5-6.8,34.1-8c12.3-2.6,56.9-10.1,60.4-10.1c1.4,0,3-.4,3.7-.8.6-.4,2.2-9.6,3.8-21.7c1.4-11.6,2.9-22,3.2-23.3.5-2,.2-2.2-2.8-2.1-1.9,0-13.5,1.8-25.9,3.9Zm305-2.4c0,1.1,1.2,11.5,2.7,23.3c2.4,19.2,2.9,21.4,4.7,22.1c1.2.5,10.2,2,20.1,3.5c23.9,3.5,53.2,9.4,79.6,16.1c11.9,2.9,22.3,5.4,23.2,5.4c1.3,0,1.5-.7,1.1-3.3-1.4-7.8-4.7-21.1-8-32.4-3.7-12.2-3.7-12.2-7.8-13.1-2.2-.6-11.3-2.8-20.1-5.1-26.9-7-69.1-15.3-89.7-17.7-5.2-.6-5.8-.4-5.8,1.2ZM722.5,626.4c-22,7.4-43.2,15.7-63.4,25-7.9,3.5-14.4,6.6-14.6,6.8-.8.9-7.7,20.7-10.4,29.8-1.7,5.8-3.6,11.9-4.1,13.6-1.3,4-1.3,4.4.3,4.4.7,0,8.9-3.4,18.3-7.6c20.3-9,44.9-18.4,67.4-25.5l16.6-5.2l2.8-12.6c1.5-6.9,4.1-17.2,5.7-22.9c2.7-9.5,2.9-12.3,1.1-12.2-.4,0-9.2,2.9-19.7,6.4Zm551.2-5.7c-.2.5,1,6,2.8,12.4s4.4,16.7,5.6,22.9c1.9,9.1,2.7,11.4,4.4,12c1.1.4,12.4,4.2,25.2,8.4c21,6.9,45.1,16.3,67.1,26.1c4.6,2,8.6,3.5,8.9,3.2.7-.8-4.8-20.1-10-34.7l-4.4-12.5-6.9-3.4c-19.1-9.3-49-21.2-74-29.5-18.6-6.1-18.1-5.9-18.7-4.9Zm-635,11.2c-23.8,13.8-44,28.4-47.9,34.6-7.4,11.8-16.8,27.5-16.8,28.1c0,1.2,2.7-.4,11.5-6.7c12.2-8.6,27.9-18.4,42.4-26.4c7.7-4.2,12.5-7.5,13-8.9.5-1.1,3.6-7.8,7-14.7c3.3-6.9,6.1-12.9,6.1-13.3c0-1.3-1.9-.4-15.3,7.3Zm724.3-7.6c0,.2,3.4,7.4,7.5,15.8c7.4,15.5,7.4,15.5,13.2,18.3c12.8,6.2,37,21.2,51.6,31.9c3.7,2.7,7,4.7,7.3,4.4.7-.6-3.3-7.8-10.4-19.2-2.4-3.9-5.1-8.2-6-9.6-3-5-24.1-20.1-47.3-33.9-11.2-6.7-15.9-9-15.9-7.7ZM968.5,636.1c-28.4,1.2-49.7,2.9-92.8,7.6-4.7.5-6.1,1-6.8,2.7-.5,1.2-1.3,8.6-1.9,16.6-1.4,21.3-3.5,90.9-2.6,91.7.4.4,9.8-.3,20.9-1.5c34.3-3.9,73-6.2,119.5-7.2c1,0,1.2-11.4,1-55.3l-.3-55.2-9-.1c-4.9-.1-17.5.2-28,.7Zm43.2-.5c-.4.4-.7,25.3-.7,55.4v54.7l3.3.6c1.7.2,11.8.5,22.2.6c28.1.2,72.8,3.2,99.5,6.6c6.3.8,12.7,1.5,14.4,1.5h2.9l-.6-31.9c-.7-32.5-3.3-77.1-4.5-78.3-3.4-3.3-133.6-12.1-136.5-9.2ZM1153,646.7c0,1,.7,12.1,1.4,24.8.8,12.6,1.8,36.8,2.2,53.7.6,27.1.9,30.8,2.3,31.2.9.3,5.9,1,11.1,1.6c27.4,3.4,93.1,17.1,117.3,24.6c1.6.5,1.7-.6,1.7-13.4c0-26.2-2.6-59.9-6.7-86-1.3-8.4-2-10.6-3.7-11.7-2.9-1.8-42-11.5-66.6-16.5-16.7-3.4-55.2-10-58.2-10-.5,0-.8.8-.8,1.7Zm-304.5.9c-41.7,7.3-66.4,12.5-93.9,20-20.3,5.5-18.2,2.6-21.5,28.4-3.5,26.9-6.3,74.2-4.4,75.3.5.3,8.1,1.1,16.8,1.7c15,1.1,16.6,1,26-1c20.9-4.5,49.5-9.9,62.5-12c20.9-3.2,25.3-3.9,25.6-4.3.2-.1.8-17.3,1.4-38.2s1.5-43.6,2-50.5s1-14.4,1-16.8c0-4.2,0-4.2-3.7-4.1-2.1,0-7.4.7-11.8,1.5ZM1381,663.7c0,.3,2.2,7.4,4.9,15.7s5.7,18.6,6.7,23c1.9,7.8,1.9,7.8,7.9,10.8c18.3,9.3,46.3,26.7,60.1,37.3c9.1,7,10.9,7.8,9.8,4.2-3.3-10.7-17.1-42.5-19.8-45.5-5.9-6.6-33.9-26.1-55.3-38.5-13.2-7.7-14.3-8.3-14.3-7Zm-761.8,8.7c-21.4,12.8-40.8,26.2-50.9,35.3-2.1,1.8-5,7.1-8.8,15.6-6.9,15.7-13.8,33.8-13.1,34.5.3.3,4.7-2.6,9.8-6.5c16-12.1,38.4-26.1,57.9-36.3l8.6-4.4l1.8-7.7c.9-4.2,4.1-14.7,7-23.3c4.4-13.2,4.9-15.6,3.5-15.6-.9,0-8,3.8-15.8,8.4Zm667.1,5.3c.6,3.6,2.2,16.9,4.7,37.9.5,5,1.5,22.4,2.1,38.5.6,16.2,1.4,29.7,1.7,30.1.4.3,11.5,4.2,24.7,8.6c24.5,8.1,51.4,18.6,70.8,27.4c6,2.8,11.1,4.7,11.5,4.3c1-.9.5-25-.8-41.5-1.5-19-3.5-33.9-7.1-52.8-2.9-14.7-3.4-16.5-5.5-17.4-1.3-.6-2.4-1.4-2.4-1.8s-.6-.7-1.2-.7c-.7,0-6.9-2.5-13.8-5.6-24.8-11.1-78.1-30.7-83.6-30.7-1.4,0-1.5.7-1.1,3.7ZM713,679.9c-26.5,8.7-54,19.7-78.7,31.2-7.1,3.4-7.2,3.4-8.7,8.9-3,11-8.1,44.4-7,46.2.3.4,4.9.8,10.2.8s17.8.4,27.7.9c54.7,2.9,65.6,3.4,66.1,2.8.4-.3,1-9.3,1.5-20c1-23.4,2.2-38.3,4.9-58.8c1.1-8.5,2-15.7,2-16.2c0-1.4-3.5-.5-18,4.2Zm733,7.6c0,.5,2.1,4.7,4.6,9.4c4.5,8.3,10.8,16.1,14.8,18.3c3.1,1.7,1.5-1.2-8-14.2-8.1-11.3-11.4-15.2-11.4-13.5Zm-878.1,3.4c-6.9,8.5-18,24.3-17.5,24.8c1.5,1.6,11.4-9.7,15.9-18.1c2.6-4.9,4.5-9.1,4.3-9.3s-1.4.9-2.7,2.6Zm39.6,34.2c-16.9,9.4-35.8,21.5-49,31.4l-12,9l31,.8c17.1.4,32,.5,33.2.2c1.6-.4,2.3-1.5,2.7-4.2.3-2.1,1.7-10.8,3.2-19.3c3.4-20.7,3.8-24,2.8-24-.5,0-5.8,2.8-11.9,6.1Zm855.5-3.7c0,.3,2.1,5.6,4.7,11.8c2.5,6.2,6.3,16.1,8.3,22c3.1,8.9,4.4,11.2,7.6,14c8.3,7.1,13.9,12.7,22.7,22.6c5,5.7,9.3,9.9,9.5,9.3.4-1.2-15.6-33.4-22.2-44.6-2.6-4.4-6.6-10.3-8.9-13-11.5-14-21.7-24.3-21.7-22.1Zm-917.6,7.8c-10.2,10.4-16.3,18.3-21.7,27.6-2.6,4.4-4.7,8.4-4.7,8.7s4.2.5,9.3.5h9.3l1.8-5.8c1.4-4.5,7.7-20.6,14.3-37c1.2-2.8-1.7-.8-8.3,6Zm394.3,27.4c-20.5,1.3-70.7,6-73.7,6.9-1.9.6-2.3,3.9-1.5,13.1l.6,7.1l16.2,1.7c19.8,2.1,79.6,9.6,104.2,13.1c9.9,1.4,18.6,2.5,19.3,2.5.9,0,1.2-5.3,1.2-23v-23l-22.7.1c-12.6.1-32.2.8-43.6,1.5ZM851,765.7c-1.4.2-11.7,2-23,3.8-31.1,5.3-33.2,5.7-32.3,6.6.6.6,59.2,6.9,64.3,6.9.4,0,.6-2.4.5-5.3-.1-2.8-.3-6.9-.4-9-.1-3.5-.3-3.7-3.3-3.6-1.8.1-4.4.4-5.8.6ZM504,795.1c-1.7,3.3-3,6.6-2.8,7.2.2.7,3.1-2.1,6.6-6.1l6.3-7.2h-3.5c-3.4,0-3.8.4-6.6,6.1Zm111.6-3c-.9,4.8-.7,32.9.3,32.9.4,0,6.8-2.7,14.1-6c16-7.3,41.8-17.6,55.5-22.1c5.5-1.8,10.4-3.6,10.8-4c1.3-1-48.8-3.8-70.4-3.9-9.6,0-9.6,0-10.3,3.1ZM988,890.7c-4.5,1.7-5.4,8.3-1.6,10.9c2.1,1.3,5.4,1.5,21.6,1.2c17.6-.3,19.3-.5,20.6-2.2c1.8-2.5,1.8-5.7,0-8.2-1.3-1.7-2.9-1.9-20.3-2.1-10.3-.1-19.5.1-20.3.4Zm194.1,5.2c-2.4,2.4-2.7,5.9-.8,8.6c1.2,1.5,3.5,1.9,14.8,2.6c21.1,1.3,26.5,1.1,28.3-.7c1.9-1.8,2.1-7.7.3-9.2-.6-.6-6.2-1.3-12.2-1.6-6.1-.4-14.9-.9-19.7-1.2-7.8-.5-8.9-.3-10.7,1.5Zm-29.2,165.2c-.1,2.4-.2,5.8-.4,7.6-.3,3.2-.2,3.2,5.2,3.9c7.4.9,24.3,0,27-1.4c2.6-1.4,3.7-4.4,2.9-7.7-.9-3.7-7.1-5.5-21.7-6.2l-12.9-.6-.1,4.4Zm-294.6-3.4c-4.3.4-4.3.4-4.3,4.7c0,2.4.3,5.8.7,7.6l.6,3.3l12.6-.6c14.9-.6,19.8-1.8,21.3-5.3c1.8-3.8,0-7.7-4.2-9.1-3.3-1.1-17.3-1.4-26.7-.6Zm-378.2,42.5c-7,15.6-11,31.9-11.8,48.3l-.6,13l5.6,14c7.4,18.7,13.4,31.5,14.7,31.5.5,0,1-1.3,1-2.9c0-4.2,2.4-15.2,5.5-25c3.1-9.9,9.3-24.3,10.8-25.3.7-.4-.1-3.3-2.1-8-4.2-9.6-12.1-30.9-15.7-42.6-1.6-5-3.3-9.2-3.7-9.2-.5,0-2.1,2.8-3.7,6.2Zm971.6,12.1c-3.8,8.9-9.4,21.4-12.5,27.7l-5.7,11.5l11.6,11.5c12.3,12.3,20.4,21.9,28.9,34.3l5.4,7.8l3.3-5.8c1.9-3.2,7.5-14.1,12.4-24.3c5-10.2,9.5-19.3,10-20.2c2.4-4.6-20.5-34.2-42.1-54.5l-4.6-4.3-6.7,16.3Zm79.7-13.6c-2.1,8.8-15.3,44.8-18.4,50-1.9,3.2-1.9,3.4,0,6.5c5.5,9.6,13,32.3,14.5,44.5.4,2.8,1.2,5.9,1.9,6.8c1,1.4,1.6.7,4.1-5.2c15.2-36.3,15.4-36.8,13.6-56.9-1.2-13.8-4.4-27.2-9.3-39.3-3.6-9.1-5.3-10.8-6.4-6.4Zm-985.5,10c-12.1,12.4-19.6,21.4-26.9,32.3-2.4,3.6-5.1,7.7-6.1,9.2-1.7,2.4-1.7,3-.4,5.5.8,1.5,5.5,10.9,10.3,20.9c9.7,19.6,14,27.4,15.1,27.4.5,0,3-3.3,5.6-7.3c7.5-11.2,20.5-26.6,30.8-36.3l9.5-8.9-5.1-10.5c-2.8-5.8-8.3-17.9-12.2-26.9-3.9-9.1-7.6-16.6-8.1-16.8s-6.2,5-12.5,11.4Zm112.6-.4c-22.9,12.6-33.4,19-49.5,30.6-13,9.3-18,13.3-18,14.6c0,2.7,21.7,41.1,36,63.5c11.7,18.2,37.1,54,38.4,54c.3,0,4.3-2.9,9-6.5c10.5-8.1,24.9-17.4,38.4-24.9c5.6-3.1,10.2-6,10.2-6.3s-2.4-4.8-5.4-10.2c-16.5-29.5-38.8-76.8-50.3-106.6-1.9-5-3.7-9.3-4.1-9.7-.4-.3-2.5.3-4.7,1.5Zm694.4.4c-.6,1.6-2.4,6.2-3.9,10.3-10.4,27.9-34.5,78.7-50,105.4-5.1,9-5.1,9-2.8,10.8c1.3,1,2.6,1.8,3,1.8c3,.1,37.5,22.3,47.1,30.2c3.9,3.3,5,3.8,6.2,2.8c2.1-1.8,15.4-19.9,26.7-36.5c14.6-21.3,30.4-47.6,43.1-71.6l4.6-8.7-6.2-4.9c-16.4-13.2-32-23.6-53.4-35.4-6.9-3.8-12.7-6.9-12.9-6.9-.3,0-.9,1.2-1.5,2.7Zm-779.5,60.5c-13,13.4-18.2,19.8-26.8,33l-5.7,8.7l4.7,7.8c13.4,22.2,34.9,52.3,51.3,71.8c10.1,12,25.3,28.5,26.2,28.5.5,0,2.8-3,5.2-6.8c5.7-8.8,17.9-23.3,26.2-31l6.6-6.3-8.8-12.2c-23.7-32.6-46.1-68.2-61.3-97.5-2.4-4.5-4.6-8.2-5-8.2s-6.1,5.5-12.6,12.2Zm856.9-11c-.5.7-4,7.1-7.7,14.2-14.8,28.1-37.9,64.4-59.3,92.8l-7.3,9.7l9.3,9.3c9.8,9.7,18.9,20.7,24.6,29.6c1.8,2.8,3.7,5.2,4.1,5.2c2.3,0,28.8-30.8,44.5-51.5c10.1-13.4,30.1-43.1,35-52.1l2.8-5-7-10.5c-9.2-13.6-17.2-22.8-33-38.2-3.9-3.7-5.2-4.5-6-3.5Zm-923.1,3c-1.4,1.7-8.1,19.1-9.8,25.3-2.1,7.8-4.3,21.4-4.5,28-.1,5.4.3,6.8,4.6,14.5c6.3,11.4,19.5,32.9,20.5,33.5c1.1.7,1.5-1,3.4-12.2c1.8-10.5,5.3-21.5,10.1-32.1l3.4-7.3-7.1-13.2c-4-7.3-9.8-18.7-13-25.5-3.3-6.7-6-12.2-6.2-12.2s-.8.6-1.4,1.2Zm991.6,18.6c-5.3,10.8-11.2,22.2-13.1,25.3l-3.4,5.6l2.9,6.4c4.7,10.2,9.6,25.6,11.4,36.1c1,5.4,2,9.8,2.4,9.8.9,0,11.6-17.8,22.7-38c3.1-5.5,3.1-5.6,2.2-15-1-11.1-3.1-21.4-6.4-31-2.9-8.5-7.6-19-8.4-18.9-.3,0-5,8.9-10.3,19.7Zm-530.3.8c-14.2.9-36.4,2.7-47.5,4-6.9.8-12.6,1.4-12.7,1.4-.3,0,.1,2.2,4.7,25.5c6.2,31.5,14.3,67.4,20.8,92.5c2.7,10.5,2.8,10.5,5.7,10.3c1.7-.1,10.4-.9,19.4-1.8c9.1-.8,21-1.5,26.5-1.5c5.6,0,12.5-.3,15.4-.6l5.2-.7v-129.7l-16.2.2c-9,.1-18.5.3-21.3.4Zm42.5,64.1v65l3.8.7c2,.3,8.4.6,14.2.6c9.9,0,41.8,2.4,48.5,3.6c3.1.5,3.1.5,10.3-28.8c9.5-38.9,22.1-98.3,20.9-99.4-1.6-1.6-46.6-5.3-74.4-6.1l-23.3-.6v65Zm-122-56c-21.4,3.6-72.2,14.5-73.8,15.8-.1.1,1.4,4.4,3.3,9.6c2,5.2,4.9,12.8,6.5,16.9c3.4,9.2,15.9,38.6,20.7,48.9c1.9,4.2,4.6,10.3,6,13.6c2.2,5.2,16,33.5,16.8,34.3.2.2,7-1.3,15.1-3.2c15.3-3.6,32.9-7,42.1-8.1c2.9-.4,5.5-1,5.7-1.4.2-.3-1.5-8.5-3.9-18.1-7.1-28.9-23.5-105.1-23.5-109.4c0-.9-5.7-.5-15,1.1Zm219.2,25c-5.2,26.2-17.4,80.4-21.2,93.9-1,3.8-1.7,7.1-1.4,7.5.2.4,2.8,1,5.7,1.4c7.9,1,29.7,5.3,43.4,8.6c6.8,1.6,12.7,2.9,13.2,2.9c1.2,0,13.4-24.9,24.8-50.5c10-22.4,28.2-67.5,28.6-70.7.2-2-.7-2.5-8.3-4.5-20.4-5.5-70.2-15.3-77.5-15.3-1.8,0-2.5,2.4-7.3,26.7ZM480,1207.5c0,2.6,6.1,18.5,7.2,18.5.4,0,.8-1.2.8-2.8c0-3.1-7.9-18.8-8-15.7Zm727.1.8c-.5,1.2-3.8,9.9-7.4,19.3-10.1,26.3-23.8,57.9-37.6,86.8-3.9,8.2-6.8,15.3-6.4,15.7.5.4,6.2,2.5,12.8,4.7s18,6.6,25.4,9.7c7.3,3.1,13.6,5.3,14,4.8.3-.5,4.2-5.4,8.7-10.9c12.9-15.9,28.4-36.9,40.2-54.5c8.4-12.5,29.2-46.1,29.2-47.1c0-2.1-39.9-18.5-62.5-25.7-7.1-2.3-13.6-4.4-14.3-4.6-.7-.3-1.6.5-2.1,1.8Zm-416.6,4.1c-22.3,7.4-55.4,20.7-58.8,23.6-1.7,1.5,29,49.5,48.1,75.3c11.6,15.7,28.5,37.2,29.9,38c.5.4,6.8-1.9,13.9-4.9c7.1-3.1,18.8-7.6,25.9-10c7.2-2.4,12.9-4.7,12.8-5.2-.1-.4-2.7-6.2-5.8-12.8-16.8-35.2-29.4-64.3-41.5-95.7-3.8-9.7-5.8-13.7-6.9-13.6-.9,0-8.8,2.4-17.6,5.3Zm744.8-3.3c-2.5,3.2-6.3,12.1-6.3,14.9c0,4,1.1,3.8,3.2-.8c4.1-8.7,6-17.7,3.1-14.1Zm-59.7,13.2c-12.9,23.3-43.4,64-69.5,92.5-9.4,10.4-9.5,10.4-8.2,13.5c6.5,16.1,10.1,29,10.1,35.7c0,1.6.4,3.2,1,3.5c1.2.7,24-21.3,38.8-37.5c11.8-12.8,30.6-36,39.6-48.9c5.7-8.1,5.9-8.6,5.7-14-.6-13.5-5.6-33.1-11.2-44.4-1.6-3.1-3-5.7-3.2-5.7-.1,0-1.5,2.4-3.1,5.3Zm-942.7,6.4c-4.3,11.2-8.7,29.7-9,38.7-.2,4.9.1,5.6,6.9,15.1c9.4,13.1,23.2,30.3,35.8,44.6c11,12.4,36.8,38,40.1,39.7c2,1.1,2.1.8,2.7-4.6c1-8.1,4.4-20.5,8.1-29.3l3.2-7.5-9-10c-26-28.7-50.5-61.2-69-91.3-2-3.4-4.1-6.1-4.6-6.1s-2.8,4.8-5.2,10.7Zm-39,7c-.2,1-.2.6,1.1,8.9.6,3.7,2.6,10.2,4.4,14.4c6,13.6,20,41,20.9,41c.6,0,.7-2.1.3-4.8-.3-2.6-.9-8.5-1.3-13.2-.5-7.2-1.1-9.1-3.5-12.5-1.6-2.2-6.8-10.6-11.5-18.8-8-13.8-10.1-16.9-10.4-15Zm1021.7,11.1c-3.8,6.4-9.3,15.3-12.1,19.7-5.2,7.9-5.3,8.2-5.9,17.5-.4,5.2-.9,11-1.2,12.7-.4,1.9-.2,3.3.4,3.3.9,0,17.4-32.3,22.2-43.5c2.4-5.6,5.2-19.6,4.2-20.7-.4-.4-3.8,4.5-7.6,11Zm-801-1.7c-18.1,10-46.1,29.1-45.4,30.9.6,1.6,17.7,22.7,28.8,35.5c12.8,14.7,61.3,63.3,65.2,65.4c2.4,1.2,3,1,10.3-4.5c4.3-3.1,12.6-8.6,18.4-12c5.8-3.5,11.2-6.7,11.9-7.1.9-.6-.7-3.3-6-9.8-20.1-25.1-42.9-57.7-60.2-86-5.4-8.8-10.4-16.6-11-17.2-.9-1-3.5,0-12,4.8Zm571.4,2.6c-21.4,35.3-45.2,69.5-67.4,96.8-4.5,5.5-6.1,8.2-5.3,8.8.7.4,6.3,3.8,12.4,7.5c6.2,3.7,14.5,9.1,18.5,12c6,4.5,7.5,5.2,9.3,4.4c3.6-1.7,45.8-43.7,60.8-60.5c14.5-16.4,33.7-39.6,33.7-40.9c0-1-16.9-13.5-27-20-7.5-4.8-28.5-16.8-29.4-16.8-.1,0-2.7,3.9-5.6,8.7Zm-630.6,40.6c-10.9,11.2-16.4,17.8-23.3,28l-5.3,7.8l9.7,9.5c21.7,21,40.3,37,62,53.4c15.7,11.7,34.9,25,36.3,25c.6,0,2.8-2.6,4.9-5.8c2.1-3.1,7.8-9.8,12.7-14.9l8.8-9.2-3.3-2.8c-7.6-6.1-41.1-39.6-56-55.8-7.2-7.8-22.6-25.9-31-36.2l-6.6-8.2-8.9,9.2Zm686,4.9c-23.3,28.5-53.3,60.5-74,79-5.7,5.1-10.4,9.6-10.4,10.1c0,.4,3.3,4.2,7.4,8.4c4.1,4.1,9.6,10.6,12.3,14.4c2.6,3.8,5.2,6.9,5.7,6.9c1.3,0,20.5-13.1,33.6-22.9c22.4-16.7,60.8-50.1,70.8-61.5l3.2-3.7-3.6-5.7c-6.6-10.3-11.6-16.6-22.3-27.5-5.7-5.9-10.8-10.7-11.2-10.7-.3,0-5.5,6-11.5,13.2Zm-816.7-8.6c-.8,1.3.6,11,2.7,19.2c3.7,13.9,7.7,22.5,17.2,36.9c14.6,22.1,32.8,43.4,52.5,61.2c9.6,8.7,11.7,10.6,17.2,15c2.7,2.2,2.8.9.6-5.5-3.2-9-5.9-22.2-5.9-29c0-6.1,0-6.1-5.7-11.1-23-20-54-54.7-75.9-84.8-1.1-1.6-2.3-2.4-2.7-1.9Zm960,9.1c-11.7,15.5-24.5,30.8-37.4,44.8-12.3,13.4-33.1,33.4-36.2,34.8-1.4.7-2,3.1-3,11.5-1.2,10-3.9,22.2-6.3,28.4-2.2,5.7.1,4.9,10.3-3.9c29.4-25.5,62.5-66.3,71.7-88.5c4.9-11.6,10.9-36.8,8.8-36.8-.3,0-3.8,4.4-7.9,9.7ZM981,1316c-24.3,1.3-41.1,3.2-41.7,4.7-.8,2,3.4,17.1,12,43.3c8.1,24.5,10.9,31.8,19.4,50.7l5.6,12.5l11.1-.6c6.1-.4,12.8-.9,14.9-1.2l3.7-.6-.2-54.6-.3-54.7-5.5-.1c-3-.1-11.6.2-19,.6Zm30.5.2c-.3.7-.4,25.6-.3,55.2.3,47,.5,53.9,1.8,54.1.8.1,7.4.4,14.5.6l13,.4l3.7-7c5.2-9.8,14.8-34.4,21.9-55.9c6.8-20.3,13.1-42.7,12.4-43.4-.8-.8-22.5-3-35.5-3.7-6.9-.3-16.7-.8-21.8-1.1-7.1-.4-9.3-.2-9.7.8Zm-94.6,6.8c-17.1,3-41.6,8.6-43.9,10-1.3.8-.9,2.1,2.4,8.5c15.6,30.5,42.7,72.4,58.3,90.2l2.8,3.3l7.5-1.9c4.1-1.1,11.8-2.7,17-3.6s9.6-1.7,9.7-1.9c.1-.1-1.1-3.1-2.8-6.7-8.7-18.1-19.8-49.6-29.1-81.9-2.7-9.6-5.3-17.8-5.6-18.1-.4-.3-7.7.6-16.3,2.1Zm163.7,8.7c-7.8,29.2-19.3,63-28.4,83.1-5.9,13.3-5.9,14.2.1,14.2c3,0,25.3,4.7,26.9,5.6c1.5.9,4.4-2.1,14-14.9c16.2-21.5,42.3-63.8,51-82.9l1.6-3.6-6.1-1.6c-15.1-3.9-23.1-5.6-36.7-8-21.1-3.8-19-4.5-22.4,8.1Zm-457.3,0c-.3,1-1.7,4.4-3,7.6-2.4,5.9-5.7,20-6.7,29-.5,4.7-.5,4.7,8.6,12.5c25.3,21.6,70.2,51.9,96.4,65l6.1,3.1.6-6.2c.3-3.4,1.8-9.6,3.2-13.7c4.3-12.2,4.4-11.4-1.6-15.3-26.1-16.7-63.1-46.4-89-71.5-7-6.7-12.9-12.2-13.3-12.2s-.9.8-1.3,1.7Zm764.6,2c-21.1,22.7-64.5,58.4-94.4,77.9-4.7,3-8.5,5.9-8.5,6.3c0,.5,1.1,3.7,2.4,7.2s3.2,10.1,4.1,14.6c1,4.6,2.2,8.3,2.6,8.3c1,0,22.4-11.9,32.4-18c20.2-12.3,45.3-30.2,65.8-46.9l11.8-9.6-.7-7c-1.2-12.7-8.4-36.5-11.1-36.5-.5,0-2.5,1.7-4.4,3.7ZM852.5,1339c-9.8,3.3-23.6,8.7-34.8,13.5l-3.8,1.6l2.3,3.2c5.7,8.1,35.3,39.4,55.5,58.8c14.9,14.4,33.4,30.1,34.7,29.5.6-.2,6.1-2.3,12.1-4.6c6.1-2.4,11.2-4.4,11.4-4.6s-1.4-2.5-3.6-5.1c-16.1-19.3-40.4-57.6-56.8-89.1-2.1-3.9-4.3-7.2-4.9-7.1-.6,0-6,1.8-12.1,3.9Zm298.8-2.8c-.6.7-3.8,6.7-7.3,13.3-15.6,29.5-38,64.3-52.2,80.7l-4.9,5.8l3.3,1.4c1.8.8,7.3,3.1,12.2,5c10.5,4.2,8.3,5,23.6-8.5c19.8-17.4,34.2-31.4,49.9-48.4c24.6-26.7,27.7-30.5,26-31.6-3.4-2.1-24.4-10.6-36.3-14.6-7.2-2.4-13.1-4.3-13.2-4.3s-.6.6-1.1,1.2Zm-353.9,27.2c-13,7.6-27.4,17.6-27.3,19s10.2,10,28.6,24.4c24,18.7,45.9,33.5,70.5,47.7l11.8,6.8l8.2-5.3c4.6-3,8.9-5.9,9.5-6.5c1-.8-.6-2.6-6.6-7.7-22.5-19.1-57.1-54-77.5-78.1-2.7-3.1-5.6-5.7-6.5-5.7s-5.7,2.4-10.7,5.4Zm395.6,11.2c-16.3,18.6-47.9,50.1-64.7,64.6l-11.3,9.7l7.4,4.6c4.1,2.5,8,5.3,8.6,6.1c1.9,2.2,3.5,1.8,11.3-2.7c30.5-17.6,61.1-38.9,88.7-61.7c15.2-12.6,14.5-11.8,13-13.8-3.6-4.2-34-23.4-37.1-23.4-.8.1-7.9,7.5-15.9,16.6Zm-579.2,7.9c-.9.9,2,16.1,4.5,23.6c3.3,9.5,8.3,20.2,10.5,22.2c5.7,5,29.2,19.8,47.7,30c19.3,10.6,51.4,25.1,52.7,23.9.4-.4-.2-3.2-1.2-6.3-1-3-2.3-9-2.9-13.3-.5-4.3-1.1-7.9-1.3-8.1-.1-.1-3-1.6-6.4-3.3-25.4-12.8-65.5-39.3-92.5-61.4-9.8-7.9-10.2-8.2-11.1-7.3Zm779.1,7.1c-27.3,22.2-68.5,49.5-92.6,61.4-7.1,3.5-7.1,3.5-7.8,9.8-.4,3.5-1.5,9.5-2.6,13.3-2.3,8.3-2.3,7.9-.4,7.9c1.7,0,22.7-9.1,35-15.2c14-6.9,38.2-21,51.3-29.8c12.2-8.2,12.8-8.8,16.4-15.5c4.4-8.4,8.3-19.8,10.3-30.3.8-4.2,1.5-8,1.5-8.5c0-1.7-2.2-.3-11.1,6.9ZM758,1392.7c-7.5,7.8-14.5,16.3-16.6,20.5-1.4,2.8-1.4,2.8,5.5,7.3c19.4,12.3,56.9,32.1,84.1,44.2c16,7.2,34.1,14.5,34.5,14.1.1-.2,2.7-3.3,5.9-7c5.8-7,6.3-7.8,4.5-7.8s-21.7-11.9-37.9-22.5c-22.7-15-49.6-35.2-66.1-49.7-3.7-3.2-6.8-5.8-7-5.8s-3.4,3-6.9,6.7Zm488-1.5c-22.7,20.6-71.2,55-97.7,69.4-4,2.1-7.3,4.3-7.3,4.8s1.7,2.7,3.8,5c2,2.2,4.4,5.2,5.2,6.5c1.6,2.3,1.6,2.3,15-3.2c37.3-15.3,68.3-30.9,101.3-51c5.3-3.2,9.9-6.3,10.2-6.7c1.2-2-15.7-23.1-22.3-27.9-2.7-1.9-2.7-1.9-8.2,3.1Zm-511.2,34.4c-2.4,5.5-6.1,23.1-5.4,25.1c1.4,3.5,53.8,26.1,81.6,35.2c15.9,5.2,36.8,10.9,43,11.7l4.7.6l2.1-6.8c1.2-3.8,1.8-7.2,1.4-7.6-.4-.3-6.3-2.9-13.2-5.6-31.8-12.7-68.8-31.4-99.6-50.3-6.2-3.8-11.5-6.9-11.8-6.9-.4,0-1.6,2.1-2.8,4.6Zm539.2-1.5c-27.9,18.4-81.4,45.2-117.7,59-2.2.8-2.2,1-.8,5c.8,2.3,1.5,5.4,1.5,7c0,3.6,1.5,3.7,13.7.9c31.3-7.3,72-22.3,108.6-40c9.9-4.8,9.7-4.3,7.1-16.8-1.6-7.9-5.6-18.3-7.1-18.1-.4,0-2.8,1.4-5.3,3Zm-662-1.3c0,1.1,10.2,11.1,12.5,12.5.9.5,1.5.4,1.5-.2c0-2.4-1.5-4.3-6.3-7.9-6.7-4.9-7.7-5.5-7.7-4.4Zm785.8,4.7c-5.3,4.3-7.5,7.1-6.3,8.3.3.4,3.3-2.2,6.7-5.6s6-6.3,5.7-6.6-3,1.5-6.1,3.9ZM984,1434.6c-14.1,1.6-22.8,2.8-30.9,4.6-32.4,6.9-57.2,18.7-72.1,34.5-16.4,17.2-17.9,34.3-4.6,51.9c7.4,9.8,16.8,16.8,33.9,24.9c50.2,24.1,128,26.6,183.4,5.9c18.1-6.8,32-15.1,42.3-25.6c17.9-18.1,18.2-38.3.8-56.5-17.6-18.3-49.2-31.7-88.8-37.9-9.9-1.5-55.1-2.8-64-1.8ZM638,1442c0,.7,2.2,4,4.9,7.4c14.9,18.7,39.3,36.2,72.5,52.1c12.6,6.1,33,14.5,35.1,14.5c1.5,0-.1-2.7-5-8.5-3-3.6-6.9-9-8.6-12-2.4-4.2-3.8-5.6-6.7-6.6-10.2-3.3-44.6-19.4-58.9-27.5-8.1-4.6-24.6-14.7-27.8-16.9-4.5-3.3-5.5-3.7-5.5-2.5Zm737.5,1.6c-12,9.2-56.6,32.7-78.7,41.4-10.7,4.2-14,6-15,8-1.8,3.6-11.1,16.2-13.7,18.4-2.1,1.9-2.9,4.6-1.2,4.6c2,0,22.6-8.7,36.8-15.5c20.5-9.9,31.6-16.6,45.8-27.6c10.7-8.5,29.5-27.5,29.5-30c0-1.3-1.2-1.1-3.5.7Zm-94,17.2c-16.1,8.3-46.6,20.9-68.5,28.3-18,6-47.1,13.9-51.6,13.9-2.8,0-3.8,1.9-4.7,9.2-.6,4.1-.4,4.8,1.1,4.8.9,0,9.7-1.3,19.4-3c26.9-4.4,51.5-10.5,77.3-19c26.4-8.7,24.7-7.9,27.4-13.5c3.1-6.4,6.7-21.3,5.5-22.4-.5-.6-3,.1-5.9,1.7Zm-550.8,5.9c2.1,11,5.3,18.5,8.6,20.1c4.9,2.4,27.9,10,43.7,14.6c22.8,6.5,67.7,15.6,77.1,15.6c1.2,0,.3-9.4-1.3-12.3-.5-.9-2-1.7-3.3-1.7-4,0-31.8-7.4-48-12.8-19.6-6.5-40.2-14.7-59.9-23.8-8.7-4.1-16.4-7.4-17.1-7.4-1,0-1,1.6.2,7.7Zm537.3,29.5c-26.4,9.6-70.5,20.2-102,24.5-12.4,1.6-13.3,1.9-14.6,4.4-.7,1.5-2.5,4.1-4,5.9-3.6,4.2-2.3,5,8.7,5c25.4,0,55.2-4.2,86.8-12.4c8.2-2.1,10-3,13.9-6.8c6.1-6,17.2-19.7,17.2-21.4c0-.8-.1-1.4-.2-1.3-.2,0-2.8,1-5.8,2.1Zm-525-.7c0,2.5,19.5,24.3,23,25.7c13.6,5.4,47.6,11.7,75,13.9c12.5,1,29.5.7,30.7-.4.2-.2-1.5-3.1-3.7-6.4-4-6-4-6-10.7-6.7-3.8-.4-11.7-1.6-17.8-2.7-6-1.1-13.2-2.4-16-2.9-11.2-2.1-27.4-6-49-12-5.7-1.6-16-4.8-21.9-6.9-5.7-2-9.6-2.7-9.6-1.6Zm-11,21c1.6,1.9,46.6,24.5,48.8,24.5c2-.1-.6-2.5-11.5-10.8-5.7-4.4-9.3-6.1-21.3-10.2-15.7-5.4-18-5.9-16-3.5Zm539,3c-6.9,2.5-13.2,4.4-14,4.5-.9,0-3.6,1.7-6.2,3.7-2.5,2.1-7.7,6-11.4,8.7-4.3,3-6.4,5.1-5.5,5.4c1.5.5,49.4-23.3,51.2-25.4c1.8-2.2-.3-1.7-14.1,3.1Zm-491.8,11.7c.8,2.4,25.6,17.4,31.3,18.9c9.9,2.7,28,4.9,40.5,4.8c17.8-.1,40.5-2.1,40.5-3.5c0-.6-2.9-3.4-6.5-6.1l-6.6-5-18.9-.1c-25-.1-40.2-1.9-69.3-8.2-11-2.4-11.5-2.4-11-.8Zm445.3,1.4c-22,5.2-62.2,9.2-78.1,7.8-7.7-.7-7-1-20.2,9.7-2.4,2,0,2.6,13.3,3.8c16.2,1.4,36.4,1.4,45.8,0c17.6-2.5,23-4,32.1-9.1c16.4-9.1,24.1-15,18.9-14.7-1,.1-6.3,1.2-11.8,2.5ZM887,1557.7c-6.9.8-22,1.6-33.7,1.6-11.7.1-20.9.5-20.5.9c1.3,1.2,13.8,5.6,25.4,8.9c14.3,4,30.4,4.9,44.8,2.5c16.2-2.6,23.6-5.6,18.3-7.2-1-.3-5.8-2.3-10.8-4.5-4.9-2.1-9.4-3.9-10-3.8-.5.1-6.6.8-13.5,1.6Zm222,1.5c-3.6,1.7-8.3,3.6-10.4,4.3-2.2.7-4.1,1.6-4.3,2.2-1.4,4.2,45.1,9.6,54.2,6.2c1.1-.4,5.6-1.7,10-2.8c10-2.7,25.5-8.1,25.5-9c0-.3-8.9-.6-19.7-.7-16.8,0-32.4-1-45.8-2.9-2-.3-5.2.7-9.5,2.7Zm-181.5,11.7c-6.4,2.5-22,6.1-26.9,6.1-2,0-2.7.3-2,1c2.2,2.2,42.1,7.9,69.6,10c24.3,1.8,89,1.1,90.3-1c.3-.4-1-1.9-2.8-3.3-1.7-1.3-4.5-3.6-6-5.1-2.7-2.5-3.1-2.6-9-1.7-26.3,3.9-71.3,1.1-98.8-6.2-8.4-2.2-8.4-2.2-14.4.2Zm145,.6c-4.9,1.3-10.3,2.4-12,2.5-1.6.1-3.9.5-5,.9-1.7.7-1.1,1.4,4.4,4.9c9.6,6.3,10.7,6.4,29.9,3.6c31.8-4.5,34.1-5.3,20.2-7.3-4.1-.6-11.7-2.4-16.8-4.1-5.1-1.6-9.8-2.9-10.5-2.9-.7.1-5.2,1.2-10.2,2.4Z" transform="translate(0 0.000031)" fill="#051515"/></g><clipPath id="e8s7bL9d5RZ10"><rect width="2048" height="2048" rx="0" ry="0" fill="#fff"/></clipPath></g><clipPath id="e8s7bL9d5RZ12"><rect width="2048" height="2048" rx="0" ry="0" fill="#fff"/></clipPath></g></svg>
